<svg id="svg" version="1.1" xmlns="http://www.w3.org/2000/svg" xmlns:xlink="http://www.w3.org/1999/xlink" width="400" height="400" viewBox="0, 0, 400,400"><g id="svgg"><path id="path0" d="M59.923 110.866 C 59.820 161.044,59.890 171.094,60.342 171.571 C 60.727 171.976,60.810 172.701,60.629 174.065 C 60.444 175.462,60.552 176.333,61.022 177.243 C 61.443 178.056,61.585 178.956,61.426 179.802 C 61.239 180.799,61.337 181.167,61.842 181.361 C 62.345 181.554,62.449 181.941,62.280 182.982 C 62.128 183.919,62.244 184.505,62.647 184.839 C 63.032 185.158,63.153 185.703,62.997 186.413 C 62.828 187.184,62.938 187.567,63.379 187.737 C 63.721 187.868,64.000 188.420,64.000 188.964 C 64.000 189.508,64.187 190.069,64.416 190.210 C 64.645 190.352,64.730 190.791,64.604 191.186 C 64.465 191.625,64.614 191.997,64.988 192.140 C 65.325 192.269,65.600 192.735,65.600 193.175 C 65.600 193.615,65.931 194.566,66.335 195.288 C 66.739 196.010,66.994 196.825,66.902 197.100 C 66.809 197.375,66.919 197.600,67.146 197.600 C 67.373 197.600,68.106 198.746,68.775 200.147 C 69.443 201.548,70.262 202.920,70.595 203.196 C 70.928 203.472,71.200 203.946,71.200 204.249 C 71.200 204.552,71.350 204.800,71.532 204.800 C 71.715 204.800,72.120 205.295,72.432 205.900 C 72.745 206.505,73.494 207.540,74.098 208.200 C 74.702 208.860,75.197 209.548,75.198 209.729 C 75.201 210.279,83.322 218.177,84.500 218.776 C 85.105 219.083,85.600 219.480,85.600 219.657 C 85.600 219.834,86.095 220.236,86.700 220.549 C 87.305 220.863,88.304 221.588,88.921 222.160 C 89.537 222.732,90.287 223.200,90.587 223.200 C 90.888 223.200,91.193 223.335,91.267 223.500 C 91.387 223.770,93.489 224.978,95.897 226.160 C 96.390 226.402,96.795 226.735,96.797 226.900 C 96.799 227.065,97.053 227.200,97.362 227.200 C 97.671 227.200,98.661 227.560,99.562 228.000 C 100.463 228.440,101.937 229.160,102.838 229.600 C 103.739 230.040,104.808 230.400,105.214 230.400 C 105.620 230.400,106.064 230.580,106.200 230.800 C 106.336 231.020,106.876 231.200,107.400 231.200 C 107.924 231.200,108.464 231.380,108.600 231.600 C 108.736 231.820,109.175 232.000,109.575 232.000 C 109.975 232.000,110.505 232.245,110.754 232.544 C 111.002 232.843,111.633 233.006,112.156 232.906 C 112.678 232.806,113.228 232.922,113.377 233.162 C 113.525 233.403,114.256 233.600,115.000 233.600 C 115.744 233.600,116.464 233.780,116.600 234.000 C 116.736 234.220,117.431 234.400,118.144 234.400 C 118.857 234.400,119.649 234.609,119.905 234.865 C 120.161 235.121,121.176 235.300,122.160 235.263 C 123.145 235.226,124.062 235.376,124.199 235.598 C 124.335 235.819,125.348 236.000,126.450 236.000 C 127.551 236.000,128.846 236.210,129.326 236.468 C 129.807 236.725,131.602 236.950,133.315 236.968 C 135.028 236.985,136.558 237.185,136.715 237.412 C 136.889 237.663,138.426 237.766,140.654 237.674 L 144.308 237.524 144.549 236.062 C 144.682 235.258,144.793 233.645,144.796 232.477 C 144.800 230.501,144.948 229.233,146.043 221.800 C 147.132 214.403,150.316 203.031,152.989 196.987 C 154.318 193.981,154.330 194.012,151.900 194.086 C 148.922 194.176,142.412 193.543,142.162 193.139 C 142.047 192.953,141.344 192.800,140.600 192.800 C 139.856 192.800,139.136 192.620,139.000 192.400 C 138.864 192.180,138.429 192.000,138.033 192.000 C 137.378 192.000,132.476 189.711,132.000 189.183 C 131.890 189.061,131.170 188.523,130.400 187.987 C 128.617 186.747,126.853 184.983,125.613 183.200 C 125.077 182.430,124.521 181.710,124.378 181.600 C 124.086 181.377,121.919 177.153,121.299 175.600 C 121.079 175.050,120.697 174.097,120.450 173.481 C 120.202 172.866,120.000 171.957,120.000 171.461 C 120.000 170.966,119.836 170.389,119.635 170.180 C 118.821 169.332,118.705 162.678,118.552 108.100 L 118.392 51.200 89.829 51.200 C 74.119 51.200,60.991 51.095,60.655 50.966 C 60.110 50.757,60.032 57.165,59.923 110.866 M183.828 51.555 C 183.559 51.989,183.509 161.242,183.777 161.510 C 183.881 161.614,185.548 160.882,187.483 159.884 C 196.944 155.001,208.737 151.514,220.800 150.033 C 229.210 149.001,231.779 148.800,236.627 148.794 C 239.472 148.791,242.026 148.644,242.302 148.469 C 242.700 148.216,242.782 138.212,242.702 99.775 L 242.600 51.400 213.325 51.297 C 196.293 51.238,183.957 51.345,183.828 51.555 M234.200 194.591 C 233.980 194.662,232.450 195.027,230.800 195.403 C 218.858 198.122,210.650 207.616,207.736 222.081 C 207.003 225.717,207.573 226.427,209.600 224.400 C 209.710 224.290,210.610 223.763,211.600 223.230 C 212.590 222.696,213.490 222.148,213.600 222.011 C 213.710 221.874,214.430 221.323,215.200 220.786 C 219.001 218.139,223.589 213.898,226.000 210.803 C 226.770 209.814,227.895 208.482,228.500 207.843 C 229.105 207.204,229.600 206.438,229.600 206.141 C 229.600 205.843,229.768 205.600,229.973 205.600 C 230.178 205.600,230.460 205.241,230.599 204.802 C 230.738 204.364,231.066 203.772,231.326 203.487 C 232.488 202.217,236.054 195.211,235.772 194.754 C 235.555 194.404,234.973 194.343,234.200 194.591 " stroke="none" fill="#e30414" fill-rule="evenodd"></path><path id="path1" d="M232.400 149.454 C 216.023 150.079,197.805 154.716,186.236 161.202 C 184.276 162.301,182.521 163.200,182.336 163.200 C 182.151 163.200,182.000 163.350,182.000 163.532 C 182.000 163.715,181.505 164.120,180.900 164.432 C 177.364 166.257,167.844 174.711,164.270 179.200 C 162.499 181.425,157.600 188.735,157.600 189.153 C 157.600 189.362,157.459 189.593,157.286 189.667 C 156.821 189.864,154.272 195.240,152.481 199.800 C 146.962 213.854,144.512 229.700,144.937 248.600 C 145.051 253.660,145.332 259.600,145.562 261.800 C 145.793 264.000,146.083 266.880,146.208 268.200 C 146.333 269.520,146.629 270.989,146.866 271.463 C 147.102 271.938,147.221 272.968,147.130 273.752 C 147.021 274.679,147.144 275.247,147.482 275.376 C 147.786 275.493,148.000 276.232,148.000 277.164 C 148.000 278.038,148.180 278.864,148.400 279.000 C 148.620 279.136,148.800 279.856,148.800 280.600 C 148.800 281.344,148.980 282.064,149.200 282.200 C 149.420 282.336,149.600 282.966,149.600 283.600 C 149.600 284.234,149.780 284.864,150.000 285.000 C 150.220 285.136,150.400 285.676,150.400 286.200 C 150.400 286.724,150.580 287.264,150.800 287.400 C 151.020 287.536,151.200 287.999,151.200 288.429 C 151.200 288.859,151.359 289.523,151.553 289.905 C 151.748 290.287,152.085 291.050,152.303 291.600 C 153.455 294.511,156.091 300.036,157.433 302.354 C 158.969 305.006,162.495 310.182,162.870 310.333 C 163.051 310.407,163.200 310.707,163.200 311.000 C 163.200 311.638,172.717 321.327,175.000 323.014 C 175.880 323.664,176.690 324.301,176.800 324.430 C 177.266 324.976,183.200 328.800,183.582 328.800 C 183.812 328.800,184.000 328.946,184.000 329.125 C 184.000 329.304,184.630 329.698,185.400 330.000 C 186.170 330.302,186.800 330.696,186.800 330.875 C 186.800 331.054,187.034 331.200,187.320 331.200 C 188.056 331.200,189.993 332.141,189.997 332.500 C 189.999 332.665,190.349 332.800,190.776 332.800 C 191.203 332.800,191.664 332.980,191.800 333.200 C 191.936 333.420,192.397 333.600,192.824 333.600 C 193.251 333.600,193.600 333.780,193.600 334.000 C 193.600 334.220,194.050 334.400,194.600 334.400 C 195.150 334.400,195.600 334.580,195.600 334.800 C 195.600 335.020,196.039 335.200,196.576 335.200 C 197.113 335.200,197.664 335.380,197.800 335.600 C 197.936 335.820,198.487 336.000,199.024 336.000 C 199.561 336.000,200.000 336.180,200.000 336.400 C 200.000 336.620,200.540 336.800,201.200 336.800 C 201.860 336.800,202.400 336.980,202.400 337.200 C 202.400 337.420,203.015 337.600,203.767 337.600 C 204.518 337.600,205.208 337.823,205.299 338.096 C 205.401 338.403,206.022 338.544,206.932 338.465 C 207.792 338.391,208.400 338.517,208.400 338.769 C 208.400 339.006,209.126 339.200,210.013 339.200 C 211.023 339.200,211.705 339.408,211.839 339.758 C 211.994 340.160,212.500 340.257,213.649 340.103 C 214.527 339.985,215.640 340.086,216.122 340.326 C 217.017 340.773,218.703 340.979,225.800 341.513 C 228.000 341.679,230.059 341.978,230.376 342.178 C 231.256 342.733,251.674 342.799,252.359 342.249 C 252.667 342.002,254.737 341.671,256.959 341.514 C 263.174 341.074,265.322 340.800,266.278 340.325 C 266.760 340.085,267.897 339.988,268.804 340.110 C 270.010 340.272,270.510 340.179,270.669 339.765 C 270.796 339.435,271.439 339.200,272.219 339.200 C 272.953 339.200,273.676 339.000,273.827 338.756 C 273.986 338.499,274.657 338.402,275.420 338.526 C 276.343 338.676,276.803 338.569,276.956 338.170 C 277.079 337.849,277.708 337.600,278.393 337.600 C 279.063 337.600,279.968 337.420,280.405 337.200 C 280.842 336.980,281.558 336.620,281.995 336.400 C 282.432 336.180,283.141 336.000,283.571 336.000 C 284.001 336.000,284.474 335.804,284.622 335.565 C 284.769 335.326,285.218 335.216,285.619 335.321 C 286.021 335.426,286.444 335.262,286.562 334.956 C 286.679 334.650,287.130 334.400,287.564 334.400 C 287.998 334.400,288.464 334.220,288.600 334.000 C 288.736 333.780,289.197 333.600,289.624 333.600 C 290.051 333.600,290.400 333.420,290.400 333.200 C 290.400 332.980,290.760 332.800,291.200 332.800 C 291.640 332.800,292.000 332.620,292.000 332.400 C 292.000 332.180,292.360 332.000,292.800 332.000 C 293.240 332.000,293.600 331.820,293.600 331.600 C 293.600 331.380,293.834 331.200,294.120 331.200 C 294.856 331.200,296.793 330.259,296.797 329.900 C 296.799 329.735,297.070 329.600,297.400 329.600 C 297.730 329.600,298.000 329.420,298.000 329.200 C 298.000 328.980,298.270 328.800,298.600 328.800 C 298.930 328.800,299.200 328.620,299.200 328.400 C 299.200 328.180,299.393 328.000,299.628 328.000 C 300.177 328.000,303.601 325.673,304.447 324.725 C 304.803 324.326,305.286 324.000,305.520 324.000 C 306.077 324.000,314.282 315.867,315.809 313.800 C 316.459 312.920,317.308 311.909,317.696 311.553 C 318.083 311.197,318.400 310.782,318.400 310.631 C 318.400 310.480,319.120 309.296,320.000 308.000 C 320.880 306.704,321.600 305.454,321.600 305.222 C 321.600 304.990,321.780 304.800,322.000 304.800 C 322.220 304.800,322.400 304.440,322.400 304.000 C 322.400 303.560,322.580 303.200,322.800 303.200 C 323.020 303.200,323.200 302.840,323.200 302.400 C 323.200 301.960,323.380 301.600,323.600 301.600 C 323.820 301.600,324.000 301.335,324.000 301.012 C 324.000 300.689,324.360 299.783,324.800 299.000 C 325.240 298.217,325.600 297.221,325.600 296.788 C 325.600 296.355,325.780 296.000,326.000 296.000 C 326.220 296.000,326.400 295.460,326.400 294.800 C 326.400 294.140,326.580 293.600,326.800 293.600 C 327.020 293.600,327.200 293.060,327.200 292.400 C 327.200 291.740,327.380 291.200,327.600 291.200 C 327.820 291.200,328.000 290.671,328.000 290.024 C 328.000 289.377,328.180 288.736,328.400 288.600 C 328.620 288.464,328.800 287.654,328.800 286.800 C 328.800 285.946,328.980 285.136,329.200 285.000 C 329.420 284.864,329.600 284.054,329.600 283.200 C 329.600 282.346,329.780 281.536,330.000 281.400 C 330.220 281.264,330.400 279.873,330.400 278.308 C 330.400 276.547,330.600 275.222,330.925 274.831 C 331.318 274.358,331.408 272.923,331.284 269.100 L 331.118 264.000 303.982 264.000 C 282.714 264.000,276.777 264.108,276.524 264.500 C 276.346 264.775,276.074 266.620,275.920 268.600 C 275.552 273.341,275.196 275.556,274.758 275.826 C 274.561 275.948,274.400 276.453,274.400 276.948 C 274.400 277.750,273.468 280.133,272.385 282.100 C 272.173 282.485,271.775 283.205,271.500 283.700 C 271.036 284.535,268.317 288.064,267.402 289.019 C 266.069 290.410,262.586 292.787,260.187 293.942 C 258.654 294.680,257.087 295.445,256.705 295.642 C 256.323 295.839,255.569 296.000,255.029 296.000 C 254.489 296.000,253.936 296.180,253.800 296.400 C 253.664 296.620,252.879 296.800,252.056 296.800 C 251.233 296.800,250.369 296.991,250.137 297.223 C 249.555 297.805,233.543 297.812,232.458 297.231 C 232.015 296.994,231.111 296.800,230.450 296.800 C 229.788 296.800,229.136 296.620,229.000 296.400 C 228.864 296.180,228.401 296.000,227.971 296.000 C 227.541 296.000,226.877 295.841,226.495 295.647 C 226.113 295.452,225.260 295.052,224.600 294.757 C 218.998 292.256,214.084 287.057,210.840 280.200 C 210.112 278.660,209.355 277.087,209.158 276.705 C 208.961 276.323,208.800 275.659,208.800 275.229 C 208.800 274.799,208.620 274.336,208.400 274.200 C 208.180 274.064,208.000 273.344,208.000 272.600 C 208.000 271.856,207.839 271.148,207.642 271.026 C 207.277 270.800,207.151 270.103,206.338 263.800 C 205.370 256.306,205.837 227.518,207.002 222.800 C 207.138 222.250,207.439 220.990,207.670 220.000 C 211.845 202.142,224.419 192.795,243.000 193.735 C 248.210 193.999,250.859 194.348,251.380 194.841 C 251.589 195.038,252.176 195.200,252.685 195.200 C 253.194 195.200,253.923 195.359,254.305 195.553 C 254.687 195.748,255.540 196.129,256.200 196.400 C 256.860 196.671,257.760 197.084,258.200 197.318 C 258.640 197.551,259.362 197.935,259.804 198.171 C 263.044 199.901,267.124 204.041,269.292 207.800 C 270.512 209.914,272.000 213.206,272.000 213.788 C 272.000 214.099,272.180 214.464,272.400 214.600 C 272.620 214.736,272.800 215.366,272.800 216.000 C 272.800 216.634,272.957 217.250,273.150 217.369 C 273.519 217.597,273.889 220.110,274.332 225.400 L 274.600 228.600 302.800 228.600 L 331.000 228.600 331.239 223.400 C 331.428 219.272,331.366 218.134,330.939 217.880 C 330.565 217.658,330.400 216.657,330.400 214.604 C 330.400 212.978,330.220 211.536,330.000 211.400 C 329.780 211.264,329.600 210.454,329.600 209.600 C 329.600 208.746,329.420 207.936,329.200 207.800 C 328.980 207.664,328.800 206.854,328.800 206.000 C 328.800 205.146,328.620 204.336,328.400 204.200 C 328.180 204.064,328.000 203.434,328.000 202.800 C 328.000 202.166,327.820 201.536,327.600 201.400 C 327.380 201.264,327.200 200.713,327.200 200.176 C 327.200 199.639,327.020 199.200,326.800 199.200 C 326.580 199.200,326.400 198.660,326.400 198.000 C 326.400 197.340,326.220 196.800,326.000 196.800 C 325.780 196.800,325.600 196.445,325.600 196.012 C 325.600 195.579,325.240 194.583,324.800 193.800 C 324.360 193.017,324.000 192.111,324.000 191.788 C 324.000 191.465,323.820 191.200,323.600 191.200 C 323.380 191.200,323.200 190.840,323.200 190.400 C 323.200 189.960,323.020 189.600,322.800 189.600 C 322.580 189.600,322.400 189.240,322.400 188.800 C 322.400 188.360,322.220 188.000,322.000 188.000 C 321.780 188.000,321.600 187.814,321.600 187.587 C 321.600 187.009,316.321 179.308,314.721 177.550 C 313.994 176.753,313.024 175.673,312.563 175.150 C 309.119 171.238,297.931 162.400,296.422 162.400 C 296.190 162.400,296.000 162.254,296.000 162.075 C 296.000 161.896,295.370 161.502,294.600 161.200 C 293.830 160.898,293.200 160.504,293.200 160.325 C 293.200 160.146,292.955 160.000,292.655 160.000 C 292.356 160.000,290.711 159.280,289.000 158.400 C 287.289 157.520,285.642 156.800,285.339 156.800 C 285.037 156.800,284.432 156.620,283.995 156.400 C 283.558 156.180,282.842 155.820,282.405 155.600 C 281.968 155.380,281.248 155.200,280.805 155.200 C 280.362 155.200,280.000 155.020,280.000 154.800 C 280.000 154.580,279.471 154.400,278.824 154.400 C 278.177 154.400,277.536 154.220,277.400 154.000 C 277.264 153.780,276.634 153.600,276.000 153.600 C 275.366 153.600,274.736 153.420,274.600 153.200 C 274.464 152.980,273.769 152.800,273.056 152.800 C 272.343 152.800,271.589 152.638,271.380 152.441 C 271.006 152.088,269.348 151.785,265.400 151.348 C 264.300 151.226,263.229 150.963,263.020 150.763 C 262.811 150.563,261.494 150.400,260.094 150.400 C 258.693 150.400,257.244 150.244,256.874 150.053 C 256.184 149.698,237.797 149.247,232.400 149.454 " stroke="none" fill="#04b4f3" fill-rule="evenodd"></path><path id="path2" d="M59.500 50.557 C 58.678 51.181,58.381 166.094,59.200 166.600 C 59.466 166.764,59.600 147.404,59.600 108.824 L 59.600 50.800 89.200 50.800 L 118.800 50.800 118.800 106.223 C 118.800 160.256,118.964 168.568,120.057 169.780 C 120.246 169.989,120.400 170.656,120.400 171.261 C 120.400 171.867,120.602 172.866,120.850 173.481 C 121.097 174.097,121.483 175.050,121.706 175.600 C 124.369 182.152,129.011 187.477,134.211 189.944 C 135.305 190.463,136.513 191.048,136.895 191.244 C 137.277 191.440,137.941 191.600,138.371 191.600 C 138.801 191.600,139.264 191.780,139.400 192.000 C 139.536 192.220,140.231 192.400,140.944 192.400 C 141.657 192.400,142.418 192.578,142.635 192.795 C 142.852 193.012,145.633 193.302,148.815 193.440 L 154.600 193.691 155.100 192.566 C 155.375 191.947,155.600 191.206,155.600 190.920 C 155.600 190.634,155.780 190.400,156.000 190.400 C 156.220 190.400,156.400 190.130,156.400 189.800 C 156.400 189.470,156.232 189.200,156.027 189.200 C 155.576 189.200,154.000 191.347,154.000 191.962 C 154.000 192.532,144.551 192.569,144.200 192.000 C 144.064 191.780,143.153 191.600,142.176 191.600 C 141.199 191.600,140.400 191.420,140.400 191.200 C 140.400 190.980,139.948 190.800,139.395 190.800 C 138.842 190.800,138.032 190.620,137.595 190.400 C 137.158 190.180,136.442 189.820,136.005 189.600 C 135.568 189.380,135.027 189.200,134.802 189.200 C 134.577 189.200,133.828 188.660,133.137 188.000 C 132.446 187.340,131.725 186.800,131.533 186.800 C 130.978 186.800,126.000 181.669,126.000 181.096 C 126.000 180.810,125.640 180.317,125.200 180.000 C 124.760 179.683,124.400 179.103,124.400 178.712 C 124.400 178.320,124.220 178.000,124.000 178.000 C 123.780 178.000,123.600 177.651,123.600 177.224 C 123.600 176.797,123.420 176.336,123.200 176.200 C 122.980 176.064,122.800 175.513,122.800 174.976 C 122.800 174.439,122.620 174.000,122.400 174.000 C 122.180 174.000,122.000 173.460,122.000 172.800 C 122.000 172.140,121.820 171.600,121.600 171.600 C 121.380 171.600,121.200 170.700,121.200 169.600 C 121.200 168.500,121.020 167.600,120.800 167.600 C 120.535 167.600,120.400 147.921,120.400 109.363 C 120.400 51.462,120.395 51.124,119.600 50.916 C 119.160 50.801,118.800 50.548,118.800 50.353 C 118.800 49.729,60.327 49.929,59.500 50.557 M183.600 50.400 C 183.600 50.663,193.733 50.800,213.200 50.800 L 242.800 50.800 242.800 99.558 L 242.800 148.315 246.100 148.556 C 255.477 149.241,257.200 149.286,257.200 148.847 C 257.200 148.577,256.406 148.400,255.200 148.400 C 254.100 148.400,253.200 148.220,253.200 148.000 C 253.200 147.756,251.333 147.600,248.400 147.600 L 243.600 147.600 243.600 99.371 C 243.600 58.107,243.517 51.060,243.029 50.571 C 242.322 49.865,183.600 49.696,183.600 50.400 M182.000 106.400 C 182.000 152.844,181.911 162.000,181.459 162.000 C 181.162 162.000,180.354 162.540,179.663 163.200 C 178.972 163.860,178.175 164.400,177.892 164.400 C 177.609 164.400,177.117 164.760,176.800 165.200 C 176.483 165.640,175.975 166.000,175.671 166.000 C 175.366 166.000,173.882 167.260,172.373 168.800 C 170.863 170.340,169.475 171.600,169.289 171.600 C 168.877 171.600,166.800 173.723,166.800 174.144 C 166.800 174.309,165.720 175.504,164.400 176.800 C 163.080 178.096,162.000 179.344,162.000 179.574 C 162.000 179.805,161.460 180.509,160.800 181.140 C 160.140 181.771,159.600 182.542,159.600 182.855 C 159.600 183.168,159.240 183.683,158.800 184.000 C 158.360 184.317,158.000 184.854,158.000 185.192 C 158.000 185.531,157.640 186.032,157.200 186.307 C 156.748 186.590,156.400 187.240,156.400 187.803 C 156.400 189.113,156.926 189.069,157.632 187.700 C 157.945 187.095,158.515 186.251,158.900 185.825 C 159.285 185.398,159.600 184.813,159.600 184.525 C 159.600 184.236,159.750 184.000,159.932 184.000 C 160.115 184.000,160.520 183.505,160.832 182.900 C 161.144 182.295,161.496 181.710,161.614 181.600 C 161.732 181.490,162.928 180.050,164.270 178.400 C 168.371 173.362,179.465 163.600,181.090 163.600 C 181.371 163.600,181.600 163.432,181.600 163.227 C 181.600 163.022,181.915 162.754,182.300 162.632 C 183.212 162.342,183.412 50.800,182.500 50.800 C 182.102 50.800,182.000 62.187,182.000 106.400 M259.200 149.600 C 259.200 149.822,260.259 150.000,261.576 150.000 C 262.883 150.000,264.064 150.180,264.200 150.400 C 264.336 150.620,265.416 150.800,266.600 150.800 C 267.784 150.800,268.864 150.980,269.000 151.200 C 269.136 151.420,269.856 151.600,270.600 151.600 C 271.344 151.600,272.064 151.780,272.200 152.000 C 272.336 152.220,273.056 152.400,273.800 152.400 C 274.544 152.400,275.264 152.580,275.400 152.800 C 275.536 153.020,276.166 153.200,276.800 153.200 C 277.434 153.200,278.064 153.380,278.200 153.600 C 278.336 153.820,278.977 154.000,279.624 154.000 C 280.271 154.000,280.800 154.180,280.800 154.400 C 280.800 154.620,281.149 154.800,281.576 154.800 C 282.003 154.800,282.464 154.980,282.600 155.200 C 282.736 155.420,283.276 155.600,283.800 155.600 C 284.324 155.600,284.864 155.780,285.000 156.000 C 285.136 156.220,285.687 156.400,286.224 156.400 C 286.761 156.400,287.200 156.580,287.200 156.800 C 287.200 157.020,287.560 157.200,288.000 157.200 C 288.440 157.200,288.800 157.380,288.800 157.600 C 288.800 157.820,289.160 158.000,289.600 158.000 C 290.040 158.000,290.400 158.180,290.400 158.400 C 290.400 158.620,290.760 158.800,291.200 158.800 C 291.640 158.800,292.000 158.980,292.000 159.200 C 292.000 159.420,292.272 159.600,292.605 159.600 C 293.161 159.600,294.722 160.322,295.200 160.800 C 295.596 161.196,297.815 162.454,298.500 162.671 C 298.885 162.793,299.200 163.052,299.200 163.247 C 299.200 163.441,299.470 163.600,299.800 163.600 C 300.130 163.600,300.400 163.780,300.400 164.000 C 300.400 164.220,300.670 164.400,301.000 164.400 C 301.330 164.400,301.600 164.541,301.600 164.714 C 301.600 164.886,302.115 165.332,302.744 165.703 C 303.374 166.075,304.589 167.010,305.444 167.780 C 306.300 168.551,307.137 169.186,307.305 169.191 C 307.746 169.204,314.799 176.213,314.803 176.641 C 314.804 176.838,315.516 177.720,316.383 178.600 C 317.251 179.480,317.970 180.425,317.980 180.700 C 317.991 180.975,318.180 181.200,318.400 181.200 C 318.620 181.200,318.800 181.470,318.800 181.800 C 318.800 182.130,318.980 182.400,319.200 182.400 C 319.420 182.400,319.600 182.670,319.600 183.000 C 319.600 183.330,319.780 183.600,320.000 183.600 C 320.220 183.600,320.400 183.870,320.400 184.200 C 320.400 184.530,320.580 184.800,320.800 184.800 C 321.020 184.800,321.200 185.036,321.200 185.325 C 321.200 185.613,321.560 186.236,322.000 186.708 C 322.440 187.180,322.800 187.844,322.800 188.183 C 322.800 188.522,322.980 188.800,323.200 188.800 C 323.894 188.800,323.633 187.233,322.800 186.400 C 322.360 185.960,322.000 185.370,322.000 185.088 C 322.000 184.807,321.640 184.317,321.200 184.000 C 320.760 183.683,320.400 183.103,320.400 182.712 C 320.400 182.320,320.220 182.000,320.000 182.000 C 319.780 182.000,319.600 181.752,319.600 181.448 C 319.600 181.145,318.880 180.155,318.000 179.248 C 317.120 178.341,316.400 177.405,316.400 177.168 C 316.400 176.931,315.680 176.024,314.800 175.153 C 313.920 174.282,313.200 173.390,313.200 173.172 C 313.200 172.954,312.885 172.654,312.500 172.507 C 312.115 172.360,310.775 171.195,309.522 169.919 C 308.269 168.644,307.055 167.600,306.823 167.600 C 306.591 167.600,305.659 166.880,304.752 166.000 C 303.845 165.120,302.855 164.400,302.552 164.400 C 302.248 164.400,302.000 164.220,302.000 164.000 C 302.000 163.780,301.764 163.600,301.475 163.600 C 301.187 163.600,300.564 163.240,300.092 162.800 C 299.620 162.360,298.996 162.000,298.705 162.000 C 298.414 162.000,297.917 161.640,297.600 161.200 C 297.283 160.760,296.786 160.400,296.495 160.400 C 296.204 160.400,295.580 160.040,295.108 159.600 C 294.636 159.160,293.833 158.800,293.325 158.800 C 292.816 158.800,292.400 158.620,292.400 158.400 C 292.400 158.180,292.040 158.000,291.600 158.000 C 291.160 158.000,290.800 157.820,290.800 157.600 C 290.800 157.380,290.440 157.200,290.000 157.200 C 289.560 157.200,289.200 157.020,289.200 156.800 C 289.200 156.580,288.966 156.400,288.680 156.400 C 287.944 156.400,286.007 155.459,286.003 155.100 C 286.001 154.935,285.460 154.800,284.800 154.800 C 284.140 154.800,283.600 154.620,283.600 154.400 C 283.600 154.180,283.060 154.000,282.400 154.000 C 281.740 154.000,281.200 153.820,281.200 153.600 C 281.200 153.380,280.660 153.200,280.000 153.200 C 279.340 153.200,278.800 153.020,278.800 152.800 C 278.800 152.580,278.271 152.400,277.624 152.400 C 276.977 152.400,276.336 152.220,276.200 152.000 C 276.064 151.780,275.333 151.600,274.576 151.600 C 273.819 151.600,273.200 151.420,273.200 151.200 C 273.200 150.980,272.573 150.800,271.806 150.800 C 270.274 150.800,266.998 150.107,265.905 149.553 C 264.940 149.062,259.200 149.103,259.200 149.600 M59.600 176.017 C 59.600 178.681,59.738 179.381,60.400 180.092 L 61.200 180.951 61.200 179.899 C 61.200 179.321,61.020 178.736,60.800 178.600 C 60.580 178.464,60.400 177.103,60.400 175.576 C 60.400 173.992,60.228 172.800,60.000 172.800 C 59.766 172.800,59.600 174.139,59.600 176.017 M61.200 183.800 C 61.200 184.570,61.380 185.200,61.600 185.200 C 61.820 185.200,62.000 184.570,62.000 183.800 C 62.000 183.030,61.820 182.400,61.600 182.400 C 61.380 182.400,61.200 183.030,61.200 183.800 M62.078 187.100 C 62.108 187.925,62.463 189.190,62.866 189.912 C 63.270 190.634,63.600 191.573,63.600 192.000 C 63.600 192.427,63.960 193.417,64.400 194.200 C 64.840 194.983,65.200 195.902,65.200 196.241 C 65.200 196.837,66.106 198.000,66.571 198.000 C 66.697 198.000,66.800 197.640,66.800 197.200 C 66.800 196.760,66.620 196.400,66.400 196.400 C 66.180 196.400,66.000 196.040,66.000 195.600 C 66.000 195.160,65.820 194.800,65.600 194.800 C 65.380 194.800,65.200 194.350,65.200 193.800 C 65.200 193.250,65.020 192.800,64.800 192.800 C 64.580 192.800,64.400 192.260,64.400 191.600 C 64.400 190.940,64.220 190.400,64.000 190.400 C 63.780 190.400,63.600 189.961,63.600 189.424 C 63.600 188.887,63.420 188.336,63.200 188.200 C 62.980 188.064,62.800 187.423,62.800 186.776 C 62.800 186.129,62.625 185.600,62.412 185.600 C 62.199 185.600,62.049 186.275,62.078 187.100 M323.600 189.767 C 323.600 190.115,323.885 190.400,324.233 190.400 C 324.940 190.400,324.817 189.539,324.075 189.292 C 323.814 189.205,323.600 189.418,323.600 189.767 M324.400 191.320 C 324.400 192.056,325.341 193.993,325.700 193.997 C 325.865 193.999,326.000 194.450,326.000 195.000 C 326.000 195.550,326.180 196.000,326.400 196.000 C 326.620 196.000,326.800 196.540,326.800 197.200 C 326.800 197.860,326.980 198.400,327.200 198.400 C 327.420 198.400,327.600 198.940,327.600 199.600 C 327.600 200.260,327.780 200.800,328.000 200.800 C 328.220 200.800,328.400 201.340,328.400 202.000 C 328.400 202.660,328.580 203.200,328.800 203.200 C 329.493 203.200,329.234 200.485,328.400 199.000 C 327.960 198.217,327.600 197.257,327.600 196.868 C 327.600 195.983,326.703 194.007,326.300 194.003 C 326.135 194.001,326.000 193.537,326.000 192.971 C 326.000 192.406,325.743 191.686,325.429 191.371 C 324.719 190.662,324.400 190.646,324.400 191.320 M237.500 194.268 C 236.743 194.395,236.400 194.694,236.400 195.227 C 236.400 195.652,236.220 196.000,236.000 196.000 C 235.780 196.000,235.600 196.360,235.600 196.800 C 235.600 197.240,235.420 197.600,235.200 197.600 C 234.980 197.600,234.800 197.960,234.800 198.400 C 234.800 198.840,234.620 199.200,234.400 199.200 C 234.180 199.200,234.000 199.560,234.000 200.000 C 234.000 200.440,233.820 200.800,233.600 200.800 C 233.380 200.800,233.200 201.078,233.200 201.417 C 233.200 201.756,232.840 202.420,232.400 202.892 C 231.960 203.364,231.600 203.987,231.600 204.275 C 231.600 204.564,231.450 204.800,231.268 204.800 C 231.085 204.800,230.680 205.295,230.368 205.900 C 230.055 206.505,229.407 207.401,228.927 207.891 C 228.447 208.381,227.547 209.456,226.927 210.280 C 224.633 213.330,219.124 218.453,215.200 221.187 C 214.430 221.723,213.509 222.486,213.153 222.881 C 212.797 223.276,212.212 223.600,211.853 223.600 C 211.494 223.600,211.200 223.780,211.200 224.000 C 211.200 224.220,210.975 224.404,210.700 224.409 C 210.425 224.414,209.750 224.770,209.200 225.200 C 208.650 225.630,207.904 225.986,207.542 225.991 C 206.327 226.008,205.874 264.117,207.070 265.685 C 207.286 265.968,207.484 266.959,207.510 267.886 C 207.535 268.813,207.746 269.926,207.978 270.359 C 208.210 270.793,208.400 271.609,208.400 272.174 C 208.400 272.738,208.580 273.200,208.800 273.200 C 209.020 273.200,209.200 273.729,209.200 274.376 C 209.200 275.023,209.380 275.664,209.600 275.800 C 209.820 275.936,210.000 276.397,210.000 276.824 C 210.000 277.251,210.180 277.600,210.400 277.600 C 210.620 277.600,210.800 277.920,210.800 278.310 C 210.800 280.108,214.452 286.103,217.136 288.712 C 221.424 292.879,228.343 296.517,232.600 296.842 C 238.423 297.288,251.333 296.786,253.302 296.037 C 253.906 295.808,254.400 295.699,254.400 295.797 C 254.400 296.189,261.097 293.116,262.981 291.859 C 268.011 288.504,272.637 282.180,273.993 276.805 C 274.188 276.032,274.623 274.320,274.960 273.000 C 275.296 271.680,275.578 269.220,275.586 267.533 C 275.594 265.846,275.709 264.181,275.843 263.833 C 276.169 262.982,330.930 262.852,331.472 263.700 C 331.905 264.376,331.611 276.565,331.159 276.733 C 330.961 276.807,330.800 278.058,330.800 279.513 C 330.800 281.093,330.945 282.007,331.159 281.780 C 331.565 281.351,332.400 273.344,332.400 269.879 C 332.400 268.625,332.580 267.600,332.800 267.600 C 333.435 267.600,333.286 263.229,332.629 262.571 C 332.144 262.087,327.707 262.000,303.429 262.000 L 274.800 262.000 274.800 265.176 C 274.800 266.923,274.620 268.464,274.400 268.600 C 274.180 268.736,274.000 269.816,274.000 271.000 C 274.000 272.184,273.820 273.264,273.600 273.400 C 273.380 273.536,273.200 274.267,273.200 275.024 C 273.200 275.781,273.020 276.400,272.800 276.400 C 272.580 276.400,272.400 276.749,272.400 277.176 C 272.400 277.603,272.220 278.064,272.000 278.200 C 271.780 278.336,271.600 278.887,271.600 279.424 C 271.600 279.961,271.420 280.400,271.200 280.400 C 270.980 280.400,270.800 280.760,270.800 281.200 C 270.800 281.640,270.620 282.000,270.400 282.000 C 270.180 282.000,270.000 282.261,270.000 282.579 C 270.000 282.898,268.920 284.287,267.600 285.665 C 266.280 287.044,265.200 288.403,265.200 288.686 C 265.200 288.969,264.957 289.200,264.659 289.200 C 264.362 289.200,263.554 289.740,262.863 290.400 C 262.172 291.060,261.280 291.600,260.879 291.600 C 260.479 291.600,259.764 291.960,259.292 292.400 C 258.820 292.840,258.167 293.200,257.840 293.200 C 257.514 293.200,257.136 293.380,257.000 293.600 C 256.864 293.820,256.324 294.000,255.800 294.000 C 255.276 294.000,254.736 294.180,254.600 294.400 C 254.464 294.620,253.733 294.800,252.976 294.800 C 252.219 294.800,251.600 294.980,251.600 295.200 C 251.600 295.429,250.400 295.600,248.800 295.600 C 247.200 295.600,246.000 295.771,246.000 296.000 C 246.000 296.246,244.000 296.400,240.800 296.400 C 237.600 296.400,235.600 296.246,235.600 296.000 C 235.600 295.780,234.700 295.600,233.600 295.600 C 232.500 295.600,231.600 295.420,231.600 295.200 C 231.600 294.980,230.880 294.800,230.000 294.800 C 229.120 294.800,228.400 294.620,228.400 294.400 C 228.400 294.180,227.860 294.000,227.200 294.000 C 226.540 294.000,226.000 293.820,226.000 293.600 C 226.000 293.380,225.640 293.200,225.200 293.200 C 224.760 293.200,224.400 293.020,224.400 292.800 C 224.400 292.580,224.080 292.400,223.688 292.400 C 223.297 292.400,222.717 292.040,222.400 291.600 C 222.083 291.160,221.503 290.800,221.112 290.800 C 220.720 290.800,220.400 290.524,220.400 290.187 C 220.400 289.851,220.085 289.456,219.700 289.310 C 218.811 288.973,218.227 288.389,217.890 287.500 C 217.744 287.115,217.349 286.800,217.013 286.800 C 216.676 286.800,216.400 286.575,216.400 286.300 C 216.399 286.025,215.931 285.260,215.360 284.600 C 214.788 283.940,214.026 282.725,213.666 281.900 C 213.306 281.075,212.874 280.400,212.706 280.400 C 212.538 280.400,212.396 280.085,212.391 279.700 C 212.386 279.315,212.030 278.550,211.600 278.000 C 211.170 277.450,210.814 276.516,210.809 275.924 C 210.804 275.332,210.620 274.736,210.400 274.600 C 210.180 274.464,210.000 273.834,210.000 273.200 C 210.000 272.566,209.820 271.936,209.600 271.800 C 209.380 271.664,209.200 270.944,209.200 270.200 C 209.200 269.456,209.020 268.736,208.800 268.600 C 208.580 268.464,208.400 267.283,208.400 265.976 C 208.400 264.659,208.222 263.600,208.000 263.600 C 207.739 263.600,207.600 257.434,207.600 245.900 L 207.601 228.200 208.547 227.100 C 209.067 226.495,209.787 226.000,210.147 226.000 C 210.506 226.000,210.800 225.820,210.800 225.600 C 210.800 225.380,211.043 225.200,211.341 225.200 C 211.638 225.200,212.446 224.660,213.137 224.000 C 213.828 223.340,214.529 222.800,214.696 222.799 C 214.863 222.799,215.630 222.259,216.400 221.600 C 217.170 220.941,217.959 220.401,218.154 220.401 C 218.348 220.400,220.078 218.801,221.998 216.846 C 223.918 214.891,225.963 212.980,226.544 212.600 C 227.125 212.219,227.600 211.698,227.600 211.442 C 227.600 211.186,227.960 210.717,228.400 210.400 C 228.840 210.083,229.200 209.543,229.200 209.200 C 229.200 208.857,229.560 208.317,230.000 208.000 C 230.440 207.683,230.800 207.124,230.800 206.758 C 230.800 206.393,231.160 205.999,231.600 205.884 C 232.040 205.769,232.400 205.388,232.400 205.037 C 232.400 204.687,232.559 204.400,232.753 204.400 C 232.948 204.400,233.207 204.085,233.329 203.700 C 233.451 203.315,233.859 202.460,234.236 201.800 C 235.329 199.886,235.600 199.251,235.600 198.605 C 235.600 198.272,235.780 198.000,236.000 198.000 C 236.220 198.000,236.400 197.676,236.400 197.280 C 236.400 195.787,237.165 195.600,243.280 195.600 C 246.960 195.600,249.200 195.751,249.200 196.000 C 249.200 196.220,249.909 196.400,250.776 196.400 C 251.643 196.400,252.464 196.580,252.600 196.800 C 252.736 197.020,253.287 197.200,253.824 197.200 C 254.361 197.200,254.800 197.380,254.800 197.600 C 254.800 197.820,255.072 198.000,255.405 198.000 C 255.961 198.000,257.522 198.722,258.000 199.200 C 258.110 199.310,258.605 199.625,259.100 199.900 C 259.595 200.175,260.393 200.625,260.873 200.900 C 262.250 201.689,265.200 204.720,265.200 205.347 C 265.200 205.659,265.450 206.010,265.756 206.128 C 266.257 206.320,266.770 207.127,268.152 209.897 C 268.399 210.390,268.735 210.795,268.900 210.797 C 269.065 210.799,269.200 211.160,269.200 211.600 C 269.200 212.040,269.380 212.400,269.600 212.400 C 269.820 212.400,270.000 212.762,270.000 213.205 C 270.000 213.648,270.180 214.368,270.400 214.805 C 270.620 215.242,270.980 215.958,271.200 216.395 C 271.420 216.832,271.600 217.901,271.600 218.771 C 271.600 219.641,271.780 220.464,272.000 220.600 C 272.220 220.736,272.400 222.459,272.400 224.429 C 272.400 226.399,272.567 228.323,272.771 228.705 C 272.975 229.087,273.239 229.715,273.358 230.100 C 273.721 231.273,331.977 231.174,332.284 230.000 C 332.399 229.560,332.652 229.200,332.847 229.200 C 333.306 229.200,333.308 225.477,332.849 224.980 C 332.656 224.771,332.385 222.710,332.247 220.400 C 331.875 214.166,331.529 211.203,331.144 210.965 C 330.682 210.680,330.701 215.337,331.163 215.820 C 331.621 216.300,331.904 228.425,331.472 229.100 C 331.222 229.492,325.049 229.600,302.819 229.600 C 271.176 229.600,274.007 229.888,273.992 226.667 C 273.985 225.252,273.736 223.529,272.651 217.400 C 271.766 212.401,268.404 206.454,264.146 202.358 C 261.577 199.886,255.969 196.400,254.561 196.400 C 254.246 196.400,253.677 196.238,253.295 196.039 C 252.020 195.376,249.423 194.747,247.200 194.562 C 243.075 194.218,238.602 194.083,237.500 194.268 M66.800 199.351 C 66.800 200.307,67.817 201.517,68.253 201.080 C 68.544 200.790,67.518 198.400,67.102 198.400 C 66.936 198.400,66.800 198.828,66.800 199.351 M68.400 202.200 C 68.400 202.530,68.580 202.800,68.800 202.800 C 69.020 202.800,69.200 203.036,69.200 203.325 C 69.200 203.613,69.560 204.236,70.000 204.708 C 70.440 205.180,70.800 205.804,70.800 206.095 C 70.800 206.386,71.160 206.883,71.600 207.200 C 72.040 207.517,72.400 208.001,72.400 208.274 C 72.400 208.548,72.760 208.965,73.200 209.200 C 73.640 209.435,74.000 209.816,74.000 210.045 C 74.000 210.275,74.675 211.131,75.500 211.948 C 76.325 212.765,77.192 213.774,77.427 214.190 C 77.661 214.606,78.185 215.139,78.590 215.373 C 78.996 215.608,80.572 217.015,82.094 218.500 C 83.616 219.985,85.029 221.200,85.234 221.200 C 85.439 221.200,86.172 221.740,86.863 222.400 C 87.554 223.060,88.362 223.600,88.659 223.600 C 88.957 223.600,89.200 223.780,89.200 224.000 C 89.200 224.220,89.520 224.400,89.912 224.400 C 90.303 224.400,90.883 224.760,91.200 225.200 C 91.517 225.640,92.097 226.000,92.488 226.000 C 92.880 226.000,93.200 226.180,93.200 226.400 C 93.200 226.620,93.520 226.800,93.912 226.800 C 94.303 226.800,94.883 227.160,95.200 227.600 C 95.517 228.040,96.176 228.400,96.665 228.400 C 97.153 228.400,97.664 228.580,97.800 228.800 C 97.936 229.020,98.397 229.200,98.824 229.200 C 99.251 229.200,99.600 229.380,99.600 229.600 C 99.600 229.820,99.960 230.000,100.400 230.000 C 100.840 230.000,101.200 230.180,101.200 230.400 C 101.200 230.620,101.740 230.800,102.400 230.800 C 103.060 230.800,103.600 230.980,103.600 231.200 C 103.600 231.420,103.960 231.600,104.400 231.600 C 104.840 231.600,105.200 231.780,105.200 232.000 C 105.200 232.220,105.639 232.400,106.176 232.400 C 106.713 232.400,107.264 232.580,107.400 232.800 C 107.536 233.020,108.177 233.200,108.824 233.200 C 109.471 233.200,110.000 233.380,110.000 233.600 C 110.000 233.820,110.540 234.000,111.200 234.000 C 111.860 234.000,112.400 234.180,112.400 234.400 C 112.400 234.620,113.019 234.800,113.776 234.800 C 114.533 234.800,115.264 234.980,115.400 235.200 C 115.536 235.420,116.357 235.600,117.224 235.600 C 118.091 235.600,118.800 235.759,118.800 235.953 C 118.800 236.148,119.925 236.413,121.300 236.544 C 125.060 236.900,126.800 237.248,126.800 237.644 C 126.800 237.840,128.600 238.000,130.800 238.000 C 135.530 238.000,136.134 237.356,131.700 237.040 C 125.252 236.580,123.200 236.321,123.200 235.966 C 123.200 235.765,122.401 235.600,121.424 235.600 C 120.447 235.600,119.536 235.420,119.400 235.200 C 119.264 234.980,118.443 234.800,117.576 234.800 C 116.709 234.800,116.000 234.640,116.000 234.444 C 116.000 234.107,115.551 233.990,111.900 233.368 C 111.075 233.227,110.400 232.991,110.400 232.844 C 110.400 232.696,109.545 232.343,108.500 232.061 C 107.455 231.778,106.287 231.379,105.905 231.173 C 105.523 230.968,104.848 230.800,104.405 230.800 C 103.962 230.800,103.600 230.620,103.600 230.400 C 103.600 230.180,103.251 230.000,102.824 230.000 C 102.397 230.000,101.936 229.820,101.800 229.600 C 101.664 229.380,101.203 229.200,100.776 229.200 C 100.349 229.200,100.000 229.020,100.000 228.800 C 100.000 228.580,99.640 228.400,99.200 228.400 C 98.760 228.400,98.400 228.220,98.400 228.000 C 98.400 227.780,98.166 227.600,97.880 227.600 C 97.144 227.600,95.207 226.659,95.203 226.300 C 95.201 226.135,94.840 226.000,94.400 226.000 C 93.960 226.000,93.600 225.848,93.600 225.663 C 93.600 225.477,92.745 224.892,91.701 224.363 C 90.657 223.833,89.532 223.182,89.201 222.916 C 88.870 222.650,87.340 221.513,85.800 220.388 C 82.765 218.173,74.000 209.693,74.000 208.971 C 74.000 208.846,73.775 208.506,73.500 208.216 C 72.431 207.089,71.600 205.977,71.600 205.671 C 71.600 205.495,71.285 205.002,70.900 204.575 C 70.515 204.149,69.945 203.305,69.632 202.700 C 69.013 201.500,68.400 201.251,68.400 202.200 M329.200 205.200 C 329.200 206.080,329.380 206.800,329.600 206.800 C 329.820 206.800,330.000 207.520,330.000 208.400 C 330.000 209.280,330.180 210.000,330.400 210.000 C 330.620 210.000,330.800 209.111,330.800 208.024 C 330.800 206.937,330.620 205.936,330.400 205.800 C 330.180 205.664,330.000 205.113,330.000 204.576 C 330.000 204.039,329.820 203.600,329.600 203.600 C 329.380 203.600,329.200 204.320,329.200 205.200 M137.200 238.400 C 137.200 238.633,138.533 238.800,140.400 238.800 L 143.600 238.800 143.600 250.400 C 143.600 257.276,143.751 262.000,143.972 262.000 C 144.176 262.000,144.439 263.575,144.557 265.500 C 144.913 271.329,145.252 274.000,145.636 274.000 C 145.836 274.000,146.000 274.799,146.000 275.776 C 146.000 276.753,146.180 277.664,146.400 277.800 C 146.620 277.936,146.800 278.566,146.800 279.200 C 146.800 279.834,146.980 280.464,147.200 280.600 C 147.420 280.736,147.600 281.647,147.600 282.624 C 147.600 283.601,147.735 284.401,147.900 284.403 C 148.417 284.409,149.200 286.501,149.200 287.880 C 149.200 288.606,149.380 289.200,149.600 289.200 C 149.820 289.200,150.000 289.549,150.000 289.976 C 150.000 290.403,150.180 290.864,150.400 291.000 C 150.620 291.136,150.800 291.687,150.800 292.224 C 150.800 292.761,150.980 293.200,151.200 293.200 C 151.420 293.200,151.600 293.555,151.600 293.988 C 151.600 294.421,151.960 295.417,152.400 296.200 C 152.840 296.983,153.200 297.889,153.200 298.212 C 153.200 298.535,153.380 298.800,153.600 298.800 C 153.820 298.800,154.000 299.160,154.000 299.600 C 154.000 300.040,154.180 300.400,154.400 300.400 C 154.620 300.400,154.800 300.720,154.800 301.112 C 154.800 301.503,155.160 302.083,155.600 302.400 C 156.040 302.717,156.400 303.171,156.400 303.409 C 156.400 304.075,157.363 305.993,157.700 305.997 C 157.865 305.999,158.000 306.251,158.000 306.558 C 158.000 306.864,158.540 307.693,159.200 308.400 C 159.860 309.107,160.400 309.839,160.400 310.028 C 160.400 310.217,160.760 310.565,161.200 310.800 C 161.640 311.035,162.000 311.472,162.000 311.769 C 162.000 312.067,162.538 312.735,163.196 313.255 C 163.854 313.775,164.394 314.434,164.396 314.721 C 164.401 315.330,172.665 323.600,173.270 323.600 C 173.495 323.600,174.183 324.140,174.800 324.800 C 175.417 325.460,176.169 326.000,176.472 326.000 C 176.775 326.000,177.283 326.360,177.600 326.800 C 177.917 327.240,178.457 327.600,178.800 327.600 C 179.143 327.600,179.683 327.960,180.000 328.400 C 180.317 328.840,180.897 329.200,181.288 329.200 C 181.680 329.200,182.000 329.352,182.000 329.537 C 182.000 329.723,182.855 330.308,183.900 330.837 C 184.945 331.367,185.860 331.935,185.933 332.100 C 186.007 332.265,186.412 332.400,186.833 332.400 C 187.255 332.400,187.600 332.580,187.600 332.800 C 187.600 333.020,187.834 333.200,188.120 333.200 C 188.856 333.200,190.793 334.141,190.797 334.500 C 190.799 334.665,191.072 334.800,191.405 334.800 C 191.738 334.800,192.368 334.980,192.805 335.200 C 193.242 335.420,193.958 335.780,194.395 336.000 C 194.832 336.220,195.552 336.400,195.995 336.400 C 196.438 336.400,196.800 336.220,196.800 336.000 C 196.800 335.780,196.350 335.600,195.800 335.600 C 195.250 335.600,194.800 335.420,194.800 335.200 C 194.800 334.980,194.350 334.800,193.800 334.800 C 193.250 334.800,192.800 334.620,192.800 334.400 C 192.800 334.180,192.440 334.000,192.000 334.000 C 191.560 334.000,191.200 333.820,191.200 333.600 C 191.200 333.380,190.840 333.200,190.400 333.200 C 189.960 333.200,189.600 333.020,189.600 332.800 C 189.600 332.580,189.366 332.400,189.080 332.400 C 188.344 332.400,186.407 331.459,186.403 331.100 C 186.401 330.935,186.040 330.800,185.600 330.800 C 185.160 330.800,184.800 330.620,184.800 330.400 C 184.800 330.180,184.522 330.000,184.183 330.000 C 183.844 330.000,183.180 329.640,182.708 329.200 C 182.236 328.760,181.613 328.400,181.325 328.400 C 181.036 328.400,180.800 328.220,180.800 328.000 C 180.800 327.780,180.530 327.600,180.200 327.600 C 179.870 327.600,179.600 327.420,179.600 327.200 C 179.600 326.980,179.409 326.800,179.177 326.800 C 178.712 326.800,176.276 324.966,173.922 322.844 C 173.094 322.098,172.019 321.209,171.533 320.868 C 170.681 320.271,169.557 319.317,168.720 318.480 C 168.256 318.016,167.786 317.475,164.810 313.975 C 163.606 312.559,162.526 311.310,162.410 311.200 C 162.294 311.090,161.944 310.505,161.632 309.900 C 161.320 309.295,160.915 308.800,160.732 308.800 C 160.550 308.800,160.400 308.530,160.400 308.200 C 160.400 307.870,160.220 307.600,160.000 307.600 C 159.780 307.600,159.600 307.330,159.600 307.000 C 159.600 306.670,159.420 306.400,159.200 306.400 C 158.980 306.400,158.800 306.164,158.800 305.875 C 158.800 305.587,158.440 304.964,158.000 304.492 C 157.560 304.020,157.200 303.371,157.200 303.050 C 157.200 302.729,157.063 302.407,156.896 302.333 C 156.488 302.154,153.193 295.533,153.197 294.900 C 153.199 294.625,153.020 294.400,152.800 294.400 C 152.580 294.400,152.400 294.051,152.400 293.624 C 152.400 293.197,152.220 292.736,152.000 292.600 C 151.780 292.464,151.600 291.913,151.600 291.376 C 151.600 290.839,151.420 290.400,151.200 290.400 C 150.980 290.400,150.800 289.961,150.800 289.424 C 150.800 288.887,150.620 288.336,150.400 288.200 C 150.180 288.064,150.000 287.524,150.000 287.000 C 150.000 286.476,149.820 285.936,149.600 285.800 C 149.380 285.664,149.200 285.034,149.200 284.400 C 149.200 283.766,149.020 283.136,148.800 283.000 C 148.580 282.864,148.400 282.144,148.400 281.400 C 148.400 280.656,148.220 279.936,148.000 279.800 C 147.780 279.664,147.600 278.969,147.600 278.256 C 147.600 277.543,147.437 276.789,147.239 276.580 C 146.894 276.217,146.643 274.723,146.150 270.100 C 146.027 268.945,145.775 268.000,145.591 268.000 C 145.113 268.000,144.800 262.272,144.567 249.300 L 144.365 238.000 140.782 238.000 C 138.661 238.000,137.200 238.163,137.200 238.400 M330.000 284.200 C 330.000 285.190,329.820 286.000,329.600 286.000 C 329.380 286.000,329.200 286.720,329.200 287.600 C 329.200 288.480,329.380 289.200,329.600 289.200 C 329.820 289.200,330.000 288.761,330.000 288.224 C 330.000 287.687,330.180 287.136,330.400 287.000 C 330.620 286.864,330.800 285.773,330.800 284.576 C 330.800 283.379,330.620 282.400,330.400 282.400 C 330.180 282.400,330.000 283.210,330.000 284.200 M328.400 290.800 C 328.400 291.460,328.220 292.000,328.000 292.000 C 327.780 292.000,327.600 292.540,327.600 293.200 C 327.600 293.860,327.420 294.400,327.200 294.400 C 326.980 294.400,326.800 294.940,326.800 295.600 C 326.800 296.260,326.620 296.800,326.400 296.800 C 326.180 296.800,326.000 297.070,326.000 297.400 C 326.000 297.730,326.144 298.000,326.320 298.000 C 326.941 298.000,327.600 297.029,327.600 296.115 C 327.600 295.606,327.780 294.832,328.000 294.395 C 328.220 293.958,328.580 293.242,328.800 292.805 C 329.020 292.368,329.200 291.468,329.200 290.805 C 329.200 290.142,329.020 289.600,328.800 289.600 C 328.580 289.600,328.400 290.140,328.400 290.800 M325.200 299.600 C 325.200 300.040,325.020 300.400,324.800 300.400 C 324.580 300.400,324.400 300.850,324.400 301.400 C 324.400 301.950,324.220 302.400,324.000 302.400 C 323.780 302.400,323.600 302.670,323.600 303.000 C 323.600 303.720,324.396 303.818,324.409 303.100 C 324.414 302.825,324.770 302.150,325.200 301.600 C 326.026 300.543,326.276 298.800,325.600 298.800 C 325.380 298.800,325.200 299.160,325.200 299.600 M322.800 304.600 C 322.800 304.930,322.665 305.201,322.500 305.203 C 322.163 305.207,321.200 307.125,321.200 307.791 C 321.200 308.029,320.840 308.483,320.400 308.800 C 319.960 309.117,319.600 309.573,319.600 309.813 C 319.600 310.053,319.222 310.655,318.760 311.151 C 318.298 311.647,318.017 312.150,318.136 312.269 C 318.453 312.586,320.400 310.532,320.400 309.880 C 320.400 309.574,320.760 308.998,321.200 308.600 C 321.640 308.202,322.000 307.716,322.000 307.521 C 322.000 307.326,322.360 306.780,322.800 306.308 C 323.640 305.407,323.883 304.000,323.200 304.000 C 322.980 304.000,322.800 304.270,322.800 304.600 M316.064 314.589 C 315.369 315.353,314.800 316.163,314.800 316.389 C 314.800 316.615,314.620 316.800,314.400 316.800 C 314.180 316.800,314.000 317.070,314.000 317.400 C 314.000 318.350,314.613 318.100,315.230 316.900 C 315.540 316.295,316.066 315.530,316.398 315.200 C 317.517 314.088,318.100 313.200,317.713 313.200 C 317.502 313.200,316.760 313.825,316.064 314.589 M311.871 319.122 C 311.098 319.976,311.017 320.400,311.629 320.400 C 312.377 320.400,313.342 319.182,312.925 318.765 C 312.680 318.520,312.299 318.649,311.871 319.122 M307.818 323.000 C 306.518 324.210,305.289 325.200,305.088 325.200 C 304.886 325.200,304.217 325.740,303.600 326.400 C 302.983 327.060,302.268 327.600,302.011 327.600 C 301.342 327.600,300.247 328.784,300.607 329.119 C 300.773 329.274,300.990 329.175,301.088 328.900 C 301.186 328.625,301.477 328.400,301.733 328.399 C 301.990 328.399,302.830 327.859,303.600 327.200 C 304.370 326.541,305.133 326.001,305.297 326.001 C 305.460 326.000,306.109 325.460,306.740 324.800 C 307.371 324.140,308.047 323.594,308.243 323.587 C 308.781 323.568,310.800 321.699,310.800 321.219 C 310.800 320.431,310.181 320.801,307.818 323.000 M298.800 329.600 C 298.800 329.820,298.440 330.000,298.000 330.000 C 297.560 330.000,297.200 330.180,297.200 330.400 C 297.200 330.620,296.930 330.800,296.600 330.800 C 296.270 330.800,296.000 330.980,296.000 331.200 C 296.000 331.420,296.270 331.600,296.600 331.600 C 296.930 331.600,297.200 331.464,297.200 331.298 C 297.200 331.131,297.740 330.756,298.400 330.464 C 299.554 329.953,300.031 329.200,299.200 329.200 C 298.980 329.200,298.800 329.380,298.800 329.600 M294.400 332.000 C 294.400 332.220,294.040 332.400,293.600 332.400 C 293.160 332.400,292.800 332.580,292.800 332.800 C 292.800 333.402,294.377 333.281,295.029 332.629 C 295.760 331.897,295.752 331.600,295.000 331.600 C 294.670 331.600,294.400 331.780,294.400 332.000 M291.000 333.600 C 290.864 333.820,290.403 334.000,289.976 334.000 C 289.549 334.000,289.200 334.180,289.200 334.400 C 289.200 334.620,288.840 334.800,288.400 334.800 C 287.960 334.800,287.600 334.980,287.600 335.200 C 287.600 335.420,287.150 335.600,286.600 335.600 C 286.050 335.600,285.600 335.780,285.600 336.000 C 285.600 336.220,286.050 336.400,286.600 336.400 C 287.150 336.400,287.600 336.220,287.600 336.000 C 287.600 335.780,287.960 335.600,288.400 335.600 C 288.840 335.600,289.200 335.420,289.200 335.200 C 289.200 334.980,289.663 334.800,290.229 334.800 C 291.155 334.800,292.400 334.014,292.400 333.429 C 292.400 333.038,291.261 333.178,291.000 333.600 M197.200 336.800 C 197.200 337.020,197.549 337.200,197.976 337.200 C 198.403 337.200,198.864 337.380,199.000 337.600 C 199.136 337.820,199.777 338.000,200.424 338.000 C 201.071 338.000,201.600 337.820,201.600 337.600 C 201.600 337.380,201.060 337.200,200.400 337.200 C 199.740 337.200,199.200 337.020,199.200 336.800 C 199.200 336.580,198.750 336.400,198.200 336.400 C 197.650 336.400,197.200 336.580,197.200 336.800 M283.200 336.800 C 283.200 337.020,283.549 337.200,283.976 337.200 C 284.403 337.200,284.864 337.020,285.000 336.800 C 285.140 336.573,284.804 336.400,284.224 336.400 C 283.661 336.400,283.200 336.580,283.200 336.800 M280.800 337.600 C 280.800 337.820,281.149 338.000,281.576 338.000 C 282.003 338.000,282.464 337.820,282.600 337.600 C 282.740 337.373,282.404 337.200,281.824 337.200 C 281.261 337.200,280.800 337.380,280.800 337.600 M202.000 338.400 C 202.000 338.620,202.450 338.800,203.000 338.800 C 203.550 338.800,204.000 338.620,204.000 338.400 C 204.000 338.180,203.550 338.000,203.000 338.000 C 202.450 338.000,202.000 338.180,202.000 338.400 M278.200 338.400 C 278.056 338.633,278.463 338.800,279.176 338.800 C 279.849 338.800,280.400 338.620,280.400 338.400 C 280.400 338.180,279.961 338.000,279.424 338.000 C 278.887 338.000,278.336 338.180,278.200 338.400 M205.200 339.200 C 205.200 339.420,205.560 339.600,206.000 339.600 C 206.440 339.600,206.800 339.780,206.800 340.000 C 206.800 340.220,207.700 340.400,208.800 340.400 C 209.900 340.400,210.800 340.220,210.800 340.000 C 210.800 339.780,210.091 339.600,209.224 339.600 C 208.357 339.600,207.536 339.420,207.400 339.200 C 207.264 338.980,206.713 338.800,206.176 338.800 C 205.639 338.800,205.200 338.980,205.200 339.200 M275.000 339.200 C 274.864 339.420,274.133 339.600,273.376 339.600 C 272.619 339.600,272.000 339.780,272.000 340.000 C 272.000 340.586,274.882 340.464,275.700 339.843 C 276.085 339.551,276.400 339.197,276.400 339.056 C 276.400 338.645,275.271 338.761,275.000 339.200 M212.400 340.800 C 212.400 341.020,212.760 341.200,213.200 341.200 C 213.640 341.200,214.000 341.380,214.000 341.600 C 214.000 341.829,215.200 342.000,216.800 342.000 C 218.400 342.000,219.600 341.829,219.600 341.600 C 219.600 341.380,218.621 341.200,217.424 341.200 C 216.227 341.200,215.136 341.020,215.000 340.800 C 214.864 340.580,214.223 340.400,213.576 340.400 C 212.929 340.400,212.400 340.580,212.400 340.800 M267.600 340.800 C 267.600 341.020,266.610 341.200,265.400 341.200 C 264.190 341.200,263.200 341.380,263.200 341.600 C 263.200 341.822,264.259 342.000,265.576 342.000 C 266.883 342.000,268.064 341.820,268.200 341.600 C 268.336 341.380,268.797 341.200,269.224 341.200 C 269.651 341.200,270.000 341.020,270.000 340.800 C 270.000 340.580,269.460 340.400,268.800 340.400 C 268.140 340.400,267.600 340.580,267.600 340.800 M221.200 342.400 C 221.200 342.620,221.999 342.800,222.976 342.800 C 223.953 342.800,224.864 342.980,225.000 343.200 C 225.330 343.734,256.679 343.720,257.009 343.186 C 257.140 342.973,258.137 342.800,259.224 342.800 C 260.311 342.800,261.200 342.620,261.200 342.400 C 261.200 342.172,260.008 342.000,258.424 342.000 C 256.897 342.000,255.536 342.180,255.400 342.400 C 255.243 342.654,250.070 342.800,241.200 342.800 C 232.330 342.800,227.157 342.654,227.000 342.400 C 226.864 342.180,225.503 342.000,223.976 342.000 C 222.392 342.000,221.200 342.172,221.200 342.400 " stroke="none" fill="#b9ddf0" fill-rule="evenodd"></path><path id="path3" d="M242.625 148.760 C 242.259 149.352,241.750 149.287,249.600 149.650 C 258.777 150.074,262.026 150.352,263.000 150.795 C 263.440 150.995,264.610 151.252,265.600 151.366 C 269.527 151.821,271.016 152.097,271.380 152.441 C 271.589 152.638,272.343 152.800,273.056 152.800 C 273.769 152.800,274.464 152.980,274.600 153.200 C 274.736 153.420,275.366 153.600,276.000 153.600 C 276.634 153.600,277.264 153.780,277.400 154.000 C 277.536 154.220,278.177 154.400,278.824 154.400 C 279.471 154.400,280.000 154.580,280.000 154.800 C 280.000 155.020,280.362 155.200,280.805 155.200 C 281.248 155.200,281.968 155.380,282.405 155.600 C 282.842 155.820,283.558 156.180,283.995 156.400 C 284.432 156.620,285.037 156.800,285.339 156.800 C 285.642 156.800,287.289 157.520,289.000 158.400 C 290.711 159.280,292.356 160.000,292.655 160.000 C 292.955 160.000,293.200 160.146,293.200 160.325 C 293.200 160.504,293.830 160.898,294.600 161.200 C 295.370 161.502,296.000 161.896,296.000 162.075 C 296.000 162.254,296.190 162.400,296.422 162.400 C 297.931 162.400,309.119 171.238,312.563 175.150 C 313.024 175.673,313.994 176.753,314.721 177.550 C 316.321 179.308,321.600 187.009,321.600 187.587 C 321.600 187.814,321.780 188.000,322.000 188.000 C 322.220 188.000,322.400 188.360,322.400 188.800 C 322.400 189.240,322.580 189.600,322.800 189.600 C 323.020 189.600,323.200 189.960,323.200 190.400 C 323.200 190.840,323.380 191.200,323.600 191.200 C 323.820 191.200,324.000 191.465,324.000 191.788 C 324.000 192.111,324.360 193.017,324.800 193.800 C 325.240 194.583,325.600 195.579,325.600 196.012 C 325.600 196.445,325.780 196.800,326.000 196.800 C 326.220 196.800,326.400 197.340,326.400 198.000 C 326.400 198.660,326.580 199.200,326.800 199.200 C 327.020 199.200,327.200 199.639,327.200 200.176 C 327.200 200.713,327.380 201.264,327.600 201.400 C 327.820 201.536,328.000 202.166,328.000 202.800 C 328.000 203.434,328.180 204.064,328.400 204.200 C 328.620 204.336,328.800 205.146,328.800 206.000 C 328.800 206.854,328.980 207.664,329.200 207.800 C 329.420 207.936,329.600 208.721,329.600 209.544 C 329.600 210.367,329.771 211.211,329.980 211.420 C 330.190 211.630,330.415 213.136,330.480 214.768 C 330.558 216.697,330.775 217.794,331.100 217.901 C 331.704 218.101,331.796 216.168,331.200 215.800 C 330.980 215.664,330.800 214.303,330.800 212.776 C 330.800 211.192,330.628 210.000,330.400 210.000 C 330.180 210.000,330.000 209.280,330.000 208.400 C 330.000 207.520,329.820 206.800,329.600 206.800 C 329.380 206.800,329.200 205.990,329.200 205.000 C 329.200 204.010,329.020 203.200,328.800 203.200 C 328.580 203.200,328.400 202.660,328.400 202.000 C 328.400 201.340,328.220 200.800,328.000 200.800 C 327.780 200.800,327.600 200.260,327.600 199.600 C 327.600 198.940,327.420 198.400,327.200 198.400 C 326.980 198.400,326.800 197.860,326.800 197.200 C 326.800 196.540,326.620 196.000,326.400 196.000 C 326.180 196.000,326.000 195.550,326.000 195.000 C 326.000 194.450,325.865 193.999,325.700 193.997 C 325.294 193.993,324.400 192.014,324.400 191.120 C 324.400 190.724,324.220 190.400,324.000 190.400 C 323.780 190.400,323.600 190.040,323.600 189.600 C 323.600 189.160,323.420 188.800,323.200 188.800 C 322.980 188.800,322.800 188.522,322.800 188.183 C 322.800 187.844,322.440 187.180,322.000 186.708 C 321.560 186.236,321.200 185.613,321.200 185.325 C 321.200 185.036,321.020 184.800,320.800 184.800 C 320.580 184.800,320.400 184.530,320.400 184.200 C 320.400 183.870,320.220 183.600,320.000 183.600 C 319.780 183.600,319.600 183.330,319.600 183.000 C 319.600 182.670,319.420 182.400,319.200 182.400 C 318.980 182.400,318.800 182.130,318.800 181.800 C 318.800 181.470,318.620 181.200,318.400 181.200 C 318.180 181.200,317.991 180.975,317.980 180.700 C 317.970 180.425,317.251 179.480,316.383 178.600 C 315.516 177.720,314.804 176.838,314.803 176.641 C 314.799 176.213,307.746 169.204,307.305 169.191 C 307.137 169.186,306.300 168.551,305.444 167.780 C 304.589 167.010,303.374 166.075,302.744 165.703 C 302.115 165.332,301.600 164.886,301.600 164.714 C 301.600 164.541,301.330 164.400,301.000 164.400 C 300.670 164.400,300.400 164.220,300.400 164.000 C 300.400 163.780,300.130 163.600,299.800 163.600 C 299.470 163.600,299.200 163.441,299.200 163.247 C 299.200 163.052,298.885 162.793,298.500 162.671 C 297.815 162.454,295.596 161.196,295.200 160.800 C 294.722 160.322,293.161 159.600,292.605 159.600 C 292.272 159.600,292.000 159.420,292.000 159.200 C 292.000 158.980,291.640 158.800,291.200 158.800 C 290.760 158.800,290.400 158.620,290.400 158.400 C 290.400 158.180,290.040 158.000,289.600 158.000 C 289.160 158.000,288.800 157.820,288.800 157.600 C 288.800 157.380,288.440 157.200,288.000 157.200 C 287.560 157.200,287.200 157.020,287.200 156.800 C 287.200 156.580,286.761 156.400,286.224 156.400 C 285.687 156.400,285.136 156.220,285.000 156.000 C 284.864 155.780,284.324 155.600,283.800 155.600 C 283.276 155.600,282.736 155.420,282.600 155.200 C 282.464 154.980,282.003 154.800,281.576 154.800 C 281.149 154.800,280.800 154.620,280.800 154.400 C 280.800 154.180,280.271 154.000,279.624 154.000 C 278.977 154.000,278.336 153.820,278.200 153.600 C 278.064 153.380,277.434 153.200,276.800 153.200 C 276.166 153.200,275.536 153.020,275.400 152.800 C 275.264 152.580,274.544 152.400,273.800 152.400 C 273.056 152.400,272.336 152.220,272.200 152.000 C 272.064 151.780,271.344 151.600,270.600 151.600 C 269.856 151.600,269.136 151.420,269.000 151.200 C 268.864 150.980,267.784 150.800,266.600 150.800 C 265.416 150.800,264.336 150.620,264.200 150.400 C 264.064 150.180,262.883 150.000,261.576 150.000 C 260.269 150.000,259.200 149.839,259.200 149.641 C 259.200 149.444,256.995 149.177,254.300 149.048 C 251.605 148.919,247.937 148.703,246.148 148.567 C 243.964 148.401,242.808 148.464,242.625 148.760 M181.929 162.922 C 181.638 163.210,181.122 163.550,180.781 163.679 C 178.230 164.643,168.157 173.625,164.270 178.400 C 162.928 180.050,161.732 181.490,161.614 181.600 C 161.496 181.710,161.144 182.295,160.832 182.900 C 160.520 183.505,160.115 184.000,159.932 184.000 C 159.750 184.000,159.600 184.236,159.600 184.525 C 159.600 184.813,159.285 185.398,158.900 185.825 C 158.515 186.251,157.945 187.095,157.632 187.700 C 157.320 188.305,156.915 188.800,156.732 188.800 C 156.550 188.800,156.400 189.160,156.400 189.600 C 156.400 190.040,156.220 190.400,156.000 190.400 C 155.780 190.400,155.600 190.749,155.600 191.176 C 155.600 191.603,155.420 192.064,155.200 192.200 C 154.980 192.336,154.802 192.842,154.805 193.324 C 154.809 193.906,155.174 193.461,155.895 192.000 C 156.491 190.790,157.118 189.740,157.289 189.667 C 157.460 189.593,157.600 189.362,157.600 189.153 C 157.600 188.735,162.499 181.425,164.270 179.200 C 167.844 174.711,177.364 166.257,180.900 164.432 C 181.505 164.120,182.000 163.715,182.000 163.532 C 182.000 163.350,182.259 163.200,182.576 163.200 C 182.893 163.200,183.264 163.020,183.400 162.800 C 183.764 162.211,182.546 162.313,181.929 162.922 M236.400 193.899 C 236.400 194.097,238.245 194.259,240.500 194.260 C 246.808 194.264,251.000 194.846,253.295 196.039 C 253.677 196.238,254.246 196.400,254.561 196.400 C 259.642 196.400,269.261 206.536,271.832 214.600 C 272.394 216.363,272.633 216.749,272.732 216.054 C 272.807 215.533,272.672 214.912,272.434 214.674 C 272.195 214.435,272.000 214.011,272.000 213.732 C 272.000 213.197,270.464 209.832,269.292 207.800 C 267.124 204.041,263.044 199.901,259.804 198.171 C 259.362 197.935,258.640 197.551,258.200 197.318 C 257.760 197.084,256.860 196.671,256.200 196.400 C 255.540 196.129,254.687 195.748,254.305 195.553 C 253.923 195.359,253.194 195.200,252.685 195.200 C 252.176 195.200,251.589 195.038,251.380 194.841 C 250.536 194.044,236.400 193.155,236.400 193.899 M272.753 217.476 C 272.727 217.654,272.750 217.980,272.806 218.200 C 273.221 219.852,273.985 225.310,273.992 226.667 C 274.007 229.888,271.179 229.600,302.794 229.600 C 324.962 229.600,331.188 229.492,331.500 229.100 C 331.745 228.792,331.802 226.908,331.649 224.200 L 331.400 219.800 331.200 224.200 L 331.000 228.600 302.800 228.600 L 274.600 228.600 274.332 225.400 C 273.798 219.027,273.065 215.346,272.753 217.476 M206.189 228.700 C 205.702 233.023,205.815 259.751,206.338 263.800 C 207.151 270.103,207.277 270.800,207.642 271.026 C 207.839 271.148,208.000 271.856,208.000 272.600 C 208.000 273.344,208.180 274.064,208.400 274.200 C 208.620 274.336,208.800 274.799,208.800 275.229 C 208.800 275.659,208.961 276.323,209.158 276.705 C 209.355 277.087,210.112 278.660,210.840 280.200 C 214.084 287.057,218.998 292.256,224.600 294.757 C 225.260 295.052,226.113 295.452,226.495 295.647 C 226.877 295.841,227.541 296.000,227.971 296.000 C 228.401 296.000,228.864 296.180,229.000 296.400 C 229.136 296.620,229.732 296.787,230.324 296.770 C 231.085 296.749,230.625 296.469,228.755 295.815 C 223.637 294.024,220.849 292.320,217.136 288.712 C 214.452 286.103,210.800 280.108,210.800 278.310 C 210.800 277.920,210.620 277.600,210.400 277.600 C 210.180 277.600,210.000 277.251,210.000 276.824 C 210.000 276.397,209.820 275.936,209.600 275.800 C 209.380 275.664,209.200 275.023,209.200 274.376 C 209.200 273.729,209.020 273.200,208.800 273.200 C 208.580 273.200,208.400 272.738,208.400 272.174 C 208.400 271.609,208.210 270.793,207.978 270.359 C 207.746 269.926,207.535 268.813,207.510 267.886 C 207.484 266.959,207.269 265.947,207.031 265.639 C 206.736 265.255,206.600 258.901,206.600 245.539 C 206.600 234.792,206.576 226.000,206.547 226.000 C 206.517 226.000,206.356 227.215,206.189 228.700 M144.662 249.200 C 144.781 261.842,145.086 268.000,145.591 268.000 C 145.775 268.000,146.013 268.945,146.119 270.100 C 146.225 271.255,146.493 272.830,146.715 273.600 L 147.118 275.000 147.159 273.380 C 147.182 272.489,147.035 271.589,146.834 271.380 C 146.632 271.171,146.359 269.830,146.227 268.400 C 146.095 266.970,145.798 264.000,145.567 261.800 C 145.336 259.600,145.014 253.300,144.851 247.800 L 144.555 237.800 144.662 249.200 M275.843 263.833 C 275.709 264.181,275.594 265.846,275.586 267.533 C 275.578 269.220,275.296 271.680,274.960 273.000 C 274.623 274.320,274.188 276.032,273.993 276.805 C 272.091 284.342,265.443 291.551,257.531 294.655 C 255.973 295.266,254.919 295.840,255.189 295.930 C 255.710 296.103,255.858 296.044,260.187 293.949 C 262.587 292.787,266.074 290.404,267.402 289.019 C 268.317 288.064,271.036 284.535,271.500 283.700 C 271.775 283.205,272.173 282.485,272.385 282.100 C 273.468 280.133,274.400 277.750,274.400 276.948 C 274.400 276.453,274.561 275.948,274.758 275.826 C 275.196 275.556,275.552 273.341,275.920 268.600 C 276.074 266.620,276.346 264.775,276.524 264.500 C 276.777 264.108,282.722 264.000,304.024 264.000 L 331.200 264.000 331.260 268.500 L 331.321 273.000 331.616 268.600 C 331.805 265.784,331.765 264.020,331.506 263.700 C 330.821 262.852,276.169 262.983,275.843 263.833 M330.900 274.855 C 330.593 275.165,330.400 276.475,330.400 278.256 C 330.400 279.849,330.220 281.264,330.000 281.400 C 329.780 281.536,329.600 282.346,329.600 283.200 C 329.600 284.054,329.420 284.864,329.200 285.000 C 328.980 285.136,328.800 285.946,328.800 286.800 C 328.800 287.654,328.620 288.464,328.400 288.600 C 328.180 288.736,328.000 289.377,328.000 290.024 C 328.000 290.671,327.820 291.200,327.600 291.200 C 327.380 291.200,327.200 291.740,327.200 292.400 C 327.200 293.060,327.020 293.600,326.800 293.600 C 326.580 293.600,326.400 294.140,326.400 294.800 C 326.400 295.460,326.220 296.000,326.000 296.000 C 325.780 296.000,325.600 296.355,325.600 296.788 C 325.600 297.221,325.240 298.217,324.800 299.000 C 324.360 299.783,324.000 300.689,324.000 301.012 C 324.000 301.335,323.820 301.600,323.600 301.600 C 323.380 301.600,323.200 301.960,323.200 302.400 C 323.200 302.840,323.020 303.200,322.800 303.200 C 322.580 303.200,322.400 303.560,322.400 304.000 C 322.400 304.440,322.220 304.800,322.000 304.800 C 321.780 304.800,321.600 304.990,321.600 305.222 C 321.600 305.454,320.880 306.704,320.000 308.000 C 319.120 309.296,318.400 310.480,318.400 310.631 C 318.400 310.782,318.083 311.197,317.696 311.553 C 317.308 311.909,316.459 312.920,315.809 313.800 C 314.282 315.867,306.077 324.000,305.520 324.000 C 305.286 324.000,304.803 324.326,304.447 324.725 C 303.601 325.673,300.177 328.000,299.628 328.000 C 299.393 328.000,299.200 328.180,299.200 328.400 C 299.200 328.620,298.930 328.800,298.600 328.800 C 298.270 328.800,298.000 328.980,298.000 329.200 C 298.000 329.420,297.730 329.600,297.400 329.600 C 297.070 329.600,296.799 329.735,296.797 329.900 C 296.793 330.259,294.856 331.200,294.120 331.200 C 293.834 331.200,293.600 331.380,293.600 331.600 C 293.600 331.820,293.240 332.000,292.800 332.000 C 292.360 332.000,292.000 332.180,292.000 332.400 C 292.000 332.620,291.640 332.800,291.200 332.800 C 290.760 332.800,290.400 332.980,290.400 333.200 C 290.400 333.420,290.128 333.600,289.795 333.600 C 289.462 333.600,288.877 333.767,288.495 333.971 C 288.113 334.175,287.485 334.439,287.100 334.558 C 286.245 334.823,286.170 335.600,287.000 335.600 C 287.330 335.600,287.600 335.420,287.600 335.200 C 287.600 334.980,287.960 334.800,288.400 334.800 C 288.840 334.800,289.200 334.620,289.200 334.400 C 289.200 334.180,289.549 334.000,289.976 334.000 C 290.403 334.000,290.864 333.820,291.000 333.600 C 291.136 333.380,291.597 333.200,292.024 333.200 C 292.451 333.200,292.800 333.020,292.800 332.800 C 292.800 332.580,293.160 332.400,293.600 332.400 C 294.040 332.400,294.400 332.220,294.400 332.000 C 294.400 331.780,294.760 331.600,295.200 331.600 C 295.640 331.600,296.000 331.420,296.000 331.200 C 296.000 330.980,296.270 330.800,296.600 330.800 C 296.930 330.800,297.200 330.620,297.200 330.400 C 297.200 330.180,297.560 330.000,298.000 330.000 C 298.440 330.000,298.800 329.820,298.800 329.600 C 298.800 329.380,299.120 329.200,299.512 329.200 C 299.903 329.200,300.483 328.840,300.800 328.400 C 301.117 327.960,301.625 327.600,301.928 327.600 C 302.231 327.600,302.983 327.060,303.600 326.400 C 304.217 325.740,304.890 325.200,305.097 325.200 C 305.447 325.200,307.314 323.576,310.880 320.172 C 311.693 319.395,312.426 318.813,312.508 318.879 C 312.751 319.076,314.000 317.694,314.000 317.229 C 314.000 316.993,314.180 316.800,314.400 316.800 C 314.620 316.800,314.800 316.592,314.800 316.338 C 314.800 316.083,315.520 315.169,316.400 314.307 C 317.280 313.444,318.000 312.482,318.000 312.169 C 318.000 311.856,318.150 311.600,318.332 311.600 C 318.515 311.600,318.919 311.105,319.230 310.500 C 319.540 309.895,320.111 309.109,320.497 308.753 C 320.884 308.397,321.200 307.938,321.200 307.733 C 321.200 307.112,322.179 305.206,322.500 305.203 C 322.665 305.201,322.800 304.930,322.800 304.600 C 322.800 304.270,322.980 304.000,323.200 304.000 C 323.420 304.000,323.600 303.640,323.600 303.200 C 323.600 302.760,323.780 302.400,324.000 302.400 C 324.220 302.400,324.400 301.950,324.400 301.400 C 324.400 300.850,324.580 300.400,324.800 300.400 C 325.020 300.400,325.200 300.040,325.200 299.600 C 325.200 299.160,325.380 298.800,325.600 298.800 C 325.820 298.800,326.000 298.350,326.000 297.800 C 326.000 297.250,326.180 296.800,326.400 296.800 C 326.620 296.800,326.800 296.260,326.800 295.600 C 326.800 294.940,326.980 294.400,327.200 294.400 C 327.420 294.400,327.600 293.860,327.600 293.200 C 327.600 292.540,327.780 292.000,328.000 292.000 C 328.220 292.000,328.400 291.460,328.400 290.800 C 328.400 290.140,328.580 289.600,328.800 289.600 C 329.020 289.600,329.200 288.790,329.200 287.800 C 329.200 286.810,329.380 286.000,329.600 286.000 C 329.820 286.000,330.000 285.190,330.000 284.200 C 330.000 283.210,330.180 282.400,330.400 282.400 C 330.628 282.400,330.800 281.211,330.800 279.633 C 330.800 277.996,330.978 276.807,331.235 276.722 C 331.474 276.642,331.609 276.075,331.535 275.463 C 331.427 274.569,331.301 274.449,330.900 274.855 M146.800 275.743 C 146.800 276.078,146.980 276.464,147.200 276.600 C 147.420 276.736,147.600 277.456,147.600 278.200 C 147.600 278.944,147.780 279.664,148.000 279.800 C 148.220 279.936,148.400 280.656,148.400 281.400 C 148.400 282.144,148.580 282.864,148.800 283.000 C 149.020 283.136,149.200 283.766,149.200 284.400 C 149.200 285.034,149.380 285.664,149.600 285.800 C 149.820 285.936,150.000 286.476,150.000 287.000 C 150.000 287.524,150.180 288.064,150.400 288.200 C 150.620 288.336,150.800 288.887,150.800 289.424 C 150.800 289.961,150.980 290.400,151.200 290.400 C 151.420 290.400,151.600 290.839,151.600 291.376 C 151.600 291.913,151.780 292.464,152.000 292.600 C 152.220 292.736,152.400 293.197,152.400 293.624 C 152.400 294.051,152.580 294.400,152.800 294.400 C 153.020 294.400,153.199 294.625,153.197 294.900 C 153.193 295.533,156.488 302.154,156.896 302.333 C 157.063 302.407,157.200 302.729,157.200 303.050 C 157.200 303.371,157.560 304.020,158.000 304.492 C 158.440 304.964,158.800 305.587,158.800 305.875 C 158.800 306.164,158.980 306.400,159.200 306.400 C 159.420 306.400,159.600 306.670,159.600 307.000 C 159.600 307.330,159.780 307.600,160.000 307.600 C 160.220 307.600,160.400 307.870,160.400 308.200 C 160.400 308.530,160.550 308.800,160.732 308.800 C 160.915 308.800,161.320 309.295,161.632 309.900 C 161.944 310.505,162.294 311.090,162.410 311.200 C 162.526 311.310,163.606 312.559,164.810 313.975 C 167.786 317.475,168.256 318.016,168.720 318.480 C 169.557 319.317,170.681 320.271,171.533 320.868 C 172.019 321.209,173.094 322.098,173.922 322.844 C 176.276 324.966,178.712 326.800,179.177 326.800 C 179.409 326.800,179.600 326.980,179.600 327.200 C 179.600 327.420,179.870 327.600,180.200 327.600 C 180.530 327.600,180.800 327.780,180.800 328.000 C 180.800 328.220,181.036 328.400,181.325 328.400 C 181.613 328.400,182.236 328.760,182.708 329.200 C 183.180 329.640,183.844 330.000,184.183 330.000 C 184.522 330.000,184.800 330.180,184.800 330.400 C 184.800 330.620,185.160 330.800,185.600 330.800 C 186.040 330.800,186.401 330.935,186.403 331.100 C 186.407 331.459,188.344 332.400,189.080 332.400 C 189.366 332.400,189.600 332.580,189.600 332.800 C 189.600 333.020,189.960 333.200,190.400 333.200 C 190.840 333.200,191.200 333.380,191.200 333.600 C 191.200 333.820,191.560 334.000,192.000 334.000 C 192.440 334.000,192.800 334.180,192.800 334.400 C 192.800 334.620,193.250 334.800,193.800 334.800 C 194.350 334.800,194.800 334.980,194.800 335.200 C 194.800 335.420,195.250 335.600,195.800 335.600 C 196.350 335.600,196.800 335.780,196.800 336.000 C 196.800 336.220,197.340 336.400,198.000 336.400 C 198.660 336.400,199.200 336.580,199.200 336.800 C 199.200 337.020,199.740 337.200,200.400 337.200 C 201.060 337.200,201.600 337.380,201.600 337.600 C 201.600 337.820,202.140 338.000,202.800 338.000 C 203.460 338.000,204.000 338.180,204.000 338.400 C 204.000 338.620,204.354 338.800,204.787 338.800 C 205.323 338.800,205.501 338.608,205.345 338.200 C 205.203 337.830,204.595 337.600,203.757 337.600 C 203.011 337.600,202.400 337.420,202.400 337.200 C 202.400 336.980,201.860 336.800,201.200 336.800 C 200.540 336.800,200.000 336.620,200.000 336.400 C 200.000 336.180,199.561 336.000,199.024 336.000 C 198.487 336.000,197.936 335.820,197.800 335.600 C 197.664 335.380,197.113 335.200,196.576 335.200 C 196.039 335.200,195.600 335.020,195.600 334.800 C 195.600 334.580,195.150 334.400,194.600 334.400 C 194.050 334.400,193.600 334.220,193.600 334.000 C 193.600 333.780,193.251 333.600,192.824 333.600 C 192.397 333.600,191.936 333.420,191.800 333.200 C 191.664 332.980,191.203 332.800,190.776 332.800 C 190.349 332.800,189.999 332.665,189.997 332.500 C 189.993 332.141,188.056 331.200,187.320 331.200 C 187.034 331.200,186.800 331.054,186.800 330.875 C 186.800 330.696,186.170 330.302,185.400 330.000 C 184.630 329.698,184.000 329.304,184.000 329.125 C 184.000 328.946,183.812 328.800,183.582 328.800 C 183.200 328.800,177.266 324.976,176.800 324.430 C 176.690 324.301,175.880 323.664,175.000 323.014 C 172.717 321.327,163.200 311.638,163.200 311.000 C 163.200 310.707,163.051 310.407,162.870 310.333 C 162.495 310.182,158.969 305.006,157.433 302.354 C 156.091 300.036,153.455 294.511,152.303 291.600 C 152.085 291.050,151.748 290.287,151.553 289.905 C 151.359 289.523,151.200 288.859,151.200 288.429 C 151.200 287.999,151.020 287.536,150.800 287.400 C 150.580 287.264,150.400 286.724,150.400 286.200 C 150.400 285.676,150.220 285.136,150.000 285.000 C 149.780 284.864,149.600 284.234,149.600 283.600 C 149.600 282.966,149.420 282.336,149.200 282.200 C 148.980 282.064,148.800 281.369,148.800 280.656 C 148.800 279.943,148.632 279.189,148.427 278.980 C 148.221 278.771,147.996 277.894,147.927 277.031 C 147.808 275.563,146.800 274.411,146.800 275.743 M252.600 296.211 C 251.013 296.734,251.010 296.739,252.251 296.769 C 252.939 296.786,253.726 296.530,254.000 296.200 C 254.274 295.870,254.431 295.619,254.349 295.642 C 254.267 295.665,253.480 295.921,252.600 296.211 M232.426 296.784 C 231.352 297.447,233.690 297.668,241.680 297.656 C 246.684 297.648,249.873 297.487,250.132 297.228 C 250.811 296.549,250.081 296.235,248.983 296.735 C 247.743 297.300,234.682 297.379,233.652 296.828 C 233.270 296.623,232.718 296.604,232.426 296.784 M284.600 335.600 C 284.464 335.820,284.001 336.000,283.571 336.000 C 283.141 336.000,282.387 336.208,281.895 336.462 C 279.918 337.484,279.565 337.600,278.429 337.600 C 277.779 337.600,277.129 337.792,276.984 338.027 C 276.551 338.726,277.179 339.006,278.013 338.485 C 278.440 338.218,279.242 338.000,279.795 338.000 C 280.348 338.000,280.800 337.820,280.800 337.600 C 280.800 337.380,281.340 337.200,282.000 337.200 C 282.660 337.200,283.200 337.020,283.200 336.800 C 283.200 336.580,283.721 336.400,284.357 336.400 C 285.017 336.400,285.613 336.142,285.745 335.800 C 286.003 335.128,285.000 334.953,284.600 335.600 M206.946 339.002 C 207.576 339.331,208.701 339.600,209.446 339.600 C 210.191 339.600,210.800 339.780,210.800 340.000 C 210.800 340.220,211.085 340.400,211.433 340.400 C 212.844 340.400,211.618 339.391,210.069 339.277 C 209.151 339.209,208.400 338.984,208.400 338.777 C 208.400 338.570,207.815 338.401,207.100 338.402 L 205.800 338.405 206.946 339.002 M273.800 338.800 C 273.664 339.020,272.953 339.200,272.219 339.200 C 271.403 339.200,270.796 339.433,270.655 339.800 C 270.499 340.208,270.677 340.400,271.213 340.400 C 271.646 340.400,272.000 340.220,272.000 340.000 C 272.000 339.780,272.585 339.594,273.300 339.587 C 274.015 339.580,274.949 339.310,275.376 338.987 C 276.123 338.423,276.112 338.400,275.100 338.400 C 274.521 338.400,273.936 338.580,273.800 338.800 M213.600 340.288 C 214.150 340.387,214.771 340.632,214.980 340.834 C 215.189 341.035,216.314 341.200,217.480 341.200 C 218.646 341.200,219.600 341.380,219.600 341.600 C 219.600 341.837,221.059 342.000,223.176 342.000 C 225.143 342.000,226.864 342.180,227.000 342.400 C 227.136 342.620,228.182 342.795,229.324 342.788 C 232.870 342.767,230.380 341.867,225.800 341.515 C 218.305 340.937,216.600 340.733,216.220 340.366 C 216.011 340.165,215.111 340.025,214.220 340.054 C 213.129 340.091,212.926 340.168,213.600 340.288 M266.180 340.365 C 265.772 340.757,263.382 341.052,256.918 341.511 C 252.723 341.808,250.090 342.800,253.496 342.800 C 254.407 342.800,255.264 342.620,255.400 342.400 C 255.537 342.179,257.337 342.000,259.424 342.000 C 261.675 342.000,263.200 341.838,263.200 341.600 C 263.200 341.380,264.190 341.200,265.400 341.200 C 266.610 341.200,267.600 341.032,267.600 340.827 C 267.600 340.621,268.095 340.378,268.700 340.287 C 269.515 340.163,269.380 340.104,268.180 340.060 C 267.289 340.027,266.389 340.164,266.180 340.365 M237.900 342.696 C 239.275 342.774,241.525 342.774,242.900 342.696 C 244.275 342.618,243.150 342.554,240.400 342.554 C 237.650 342.554,236.525 342.618,237.900 342.696 " stroke="none" fill="#63d1f5" fill-rule="evenodd"></path><path id="path4" d="M59.795 107.200 C 59.795 138.330,59.842 151.065,59.900 135.500 C 59.958 119.935,59.958 94.465,59.900 78.900 C 59.842 63.335,59.795 76.070,59.795 107.200 M89.500 51.100 L 118.400 51.205 118.428 107.703 C 118.445 142.409,118.602 164.509,118.835 165.000 C 119.108 165.575,119.156 165.249,119.007 163.844 C 118.893 162.768,118.800 136.893,118.800 106.344 L 118.800 50.800 89.700 50.897 L 60.600 50.995 89.500 51.100 M183.043 51.433 C 182.470 52.925,182.778 162.017,183.356 162.238 C 183.662 162.356,185.417 161.643,187.256 160.654 C 199.715 153.954,216.143 150.097,235.307 149.371 C 239.215 149.223,242.483 148.989,242.569 148.851 C 242.958 148.225,227.765 149.043,220.600 150.033 C 207.711 151.815,196.880 155.034,187.515 159.867 C 185.598 160.856,183.888 161.578,183.715 161.471 C 183.542 161.364,183.490 136.554,183.600 106.338 L 183.800 51.400 213.300 51.400 C 229.525 51.400,242.800 51.265,242.800 51.100 C 242.800 50.421,183.304 50.752,183.043 51.433 M119.267 168.076 C 119.230 169.108,119.380 170.064,119.600 170.200 C 119.820 170.336,120.000 170.878,120.000 171.405 C 120.000 171.931,120.202 172.866,120.450 173.481 C 120.697 174.097,121.034 174.960,121.198 175.400 C 121.837 177.116,124.207 181.600,124.474 181.600 C 124.629 181.600,124.136 180.503,123.378 179.162 C 122.620 177.820,122.000 176.500,122.000 176.228 C 122.000 175.956,121.877 175.610,121.726 175.459 C 121.257 174.991,120.412 172.251,120.406 171.180 C 120.403 170.619,120.232 169.989,120.027 169.780 C 119.821 169.571,119.582 168.680,119.494 167.800 L 119.334 166.200 119.267 168.076 M59.600 172.000 C 59.600 172.440,59.780 172.800,60.000 172.800 C 60.220 172.800,60.421 173.205,60.446 173.700 C 60.484 174.425,60.530 174.458,60.682 173.868 C 60.931 172.905,60.490 171.200,59.992 171.200 C 59.777 171.200,59.600 171.560,59.600 172.000 M60.414 177.054 C 60.406 177.524,60.669 178.424,60.998 179.054 C 61.595 180.199,61.595 180.199,61.583 179.200 C 61.568 177.849,60.435 175.771,60.414 177.054 M61.200 181.767 C 61.200 182.115,61.367 182.400,61.571 182.400 C 61.775 182.400,62.032 182.715,62.142 183.100 C 62.253 183.485,62.311 183.274,62.272 182.631 C 62.198 181.431,61.200 180.626,61.200 181.767 M125.696 183.395 C 126.193 184.162,126.744 184.792,126.920 184.795 C 127.097 184.798,126.760 184.170,126.173 183.400 C 124.800 181.600,124.532 181.597,125.696 183.395 M62.000 184.780 C 62.000 185.042,62.270 185.527,62.600 185.857 C 63.115 186.372,63.200 186.375,63.200 185.878 C 63.200 185.559,62.930 185.074,62.600 184.800 C 62.146 184.424,62.000 184.419,62.000 184.780 M128.000 185.809 C 128.000 186.152,128.766 186.862,130.300 187.940 C 132.143 189.236,131.910 188.829,129.800 187.065 C 128.810 186.237,128.000 185.672,128.000 185.809 M63.100 188.030 C 63.375 188.322,63.600 188.897,63.600 189.309 C 63.600 189.720,63.870 190.327,64.200 190.657 C 64.834 191.292,65.060 190.830,64.434 190.180 C 64.232 189.971,64.007 189.364,63.934 188.831 C 63.860 188.299,63.530 187.781,63.200 187.681 C 62.716 187.535,62.696 187.602,63.100 188.030 M132.010 189.098 C 132.024 189.506,137.244 192.000,138.084 192.000 C 138.452 192.000,138.864 192.180,139.000 192.400 C 139.136 192.620,139.856 192.800,140.600 192.800 C 141.344 192.800,142.047 192.953,142.162 193.139 C 142.412 193.543,148.922 194.176,151.900 194.086 C 154.330 194.012,154.318 193.981,152.989 196.987 C 150.316 203.031,147.132 214.403,146.043 221.800 C 144.948 229.233,144.800 230.501,144.796 232.477 C 144.793 233.645,144.681 235.268,144.546 236.085 L 144.300 237.569 141.050 237.703 L 137.800 237.837 141.249 237.919 L 144.698 238.000 144.926 236.500 C 145.052 235.675,145.261 233.650,145.392 232.000 C 146.371 219.608,148.650 209.501,152.855 198.893 C 153.925 196.195,154.800 193.928,154.800 193.856 C 154.800 193.783,152.152 193.604,148.915 193.457 C 145.678 193.310,142.852 193.012,142.635 192.795 C 142.418 192.578,141.657 192.400,140.944 192.400 C 140.231 192.400,139.536 192.220,139.400 192.000 C 139.264 191.780,138.801 191.600,138.371 191.600 C 137.941 191.600,137.277 191.444,136.895 191.252 C 136.513 191.061,135.255 190.431,134.100 189.851 C 132.945 189.271,132.005 188.933,132.010 189.098 M64.400 192.367 C 64.400 192.605,64.580 192.800,64.800 192.800 C 65.020 192.800,65.200 193.250,65.200 193.800 C 65.200 194.350,65.380 194.800,65.600 194.800 C 65.820 194.800,66.000 195.141,66.000 195.557 C 66.000 195.974,66.262 196.415,66.582 196.538 C 67.033 196.711,66.996 196.461,66.417 195.429 C 66.005 194.697,65.608 193.685,65.534 193.180 C 65.400 192.264,64.400 191.547,64.400 192.367 M233.000 194.282 C 220.684 195.944,210.994 205.782,207.670 220.000 C 206.856 223.484,206.400 225.557,206.400 225.777 C 206.400 226.305,208.284 225.917,209.200 225.200 C 209.750 224.770,210.425 224.414,210.700 224.409 C 210.975 224.404,211.200 224.220,211.200 224.000 C 211.200 223.780,211.483 223.600,211.829 223.600 C 212.174 223.600,212.727 223.330,213.057 223.000 C 213.387 222.670,213.534 222.400,213.383 222.400 C 213.088 222.400,209.931 224.069,209.600 224.400 C 207.573 226.427,207.003 225.717,207.736 222.081 C 210.386 208.929,217.593 199.629,227.779 196.218 C 230.851 195.190,235.305 194.345,235.679 194.719 C 236.084 195.124,232.623 202.073,231.300 203.513 C 231.025 203.812,230.800 204.211,230.800 204.400 C 230.800 204.589,230.575 204.988,230.300 205.287 C 229.726 205.912,228.800 207.477,228.800 207.823 C 228.800 208.239,229.783 207.032,230.368 205.900 C 230.680 205.295,231.085 204.800,231.268 204.800 C 231.450 204.800,231.600 204.564,231.600 204.275 C 231.600 203.987,231.960 203.364,232.400 202.892 C 232.840 202.420,233.200 201.756,233.200 201.417 C 233.200 201.078,233.380 200.800,233.600 200.800 C 233.820 200.800,234.000 200.440,234.000 200.000 C 234.000 199.560,234.180 199.200,234.400 199.200 C 234.620 199.200,234.800 198.840,234.800 198.400 C 234.800 197.960,234.980 197.600,235.200 197.600 C 235.420 197.600,235.600 197.240,235.600 196.800 C 235.600 196.360,235.780 196.000,236.000 196.000 C 236.220 196.000,236.400 195.550,236.400 195.000 C 236.400 193.944,236.050 193.870,233.000 194.282 M66.800 198.000 C 66.800 198.220,66.935 198.401,67.100 198.403 C 67.411 198.406,68.400 200.303,68.400 200.896 C 68.400 201.082,68.760 201.620,69.200 202.092 C 69.640 202.564,70.000 203.187,70.000 203.475 C 70.000 203.764,70.150 204.000,70.332 204.000 C 70.515 204.000,70.920 204.495,71.232 205.100 C 71.545 205.705,71.980 206.405,72.200 206.655 C 73.261 207.863,74.000 208.828,74.000 209.005 C 74.000 209.540,82.550 217.985,84.800 219.673 C 88.310 222.304,89.198 222.860,88.979 222.288 C 88.860 221.979,88.051 221.327,87.181 220.838 C 86.312 220.349,85.600 219.811,85.600 219.642 C 85.600 219.473,85.105 219.083,84.500 218.776 C 83.322 218.177,75.201 210.279,75.198 209.729 C 75.197 209.548,74.702 208.860,74.098 208.200 C 73.494 207.540,72.745 206.505,72.432 205.900 C 72.120 205.295,71.715 204.800,71.532 204.800 C 71.350 204.800,71.200 204.552,71.200 204.249 C 71.200 203.946,70.928 203.472,70.595 203.196 C 70.262 202.920,69.443 201.548,68.775 200.147 C 67.686 197.867,66.800 196.903,66.800 198.000 M227.796 208.540 C 225.896 210.705,223.670 214.074,225.300 212.319 C 226.406 211.128,228.472 208.339,228.340 208.214 C 228.263 208.141,228.018 208.288,227.796 208.540 M223.286 213.854 C 222.783 214.374,222.530 214.800,222.724 214.800 C 223.148 214.800,224.597 213.255,224.364 213.051 C 224.274 212.972,223.789 213.333,223.286 213.854 M220.770 216.254 C 220.236 216.834,219.098 217.824,218.240 218.454 C 217.382 219.084,216.879 219.600,217.121 219.600 C 217.571 219.600,222.390 215.241,221.970 215.215 C 221.843 215.207,221.303 215.674,220.770 216.254 M214.811 221.020 C 212.984 222.309,213.613 222.292,215.514 221.000 C 216.323 220.450,216.809 220.009,216.593 220.020 C 216.377 220.030,215.575 220.480,214.811 221.020 M89.607 223.113 C 89.611 223.271,90.511 223.824,91.607 224.342 C 92.703 224.861,93.600 225.446,93.600 225.642 C 93.600 225.839,93.960 226.000,94.400 226.000 C 94.840 226.000,95.201 226.135,95.203 226.300 C 95.207 226.659,97.144 227.600,97.880 227.600 C 98.166 227.600,98.400 227.780,98.400 228.000 C 98.400 228.220,98.760 228.400,99.200 228.400 C 99.640 228.400,100.000 228.580,100.000 228.800 C 100.000 229.020,100.349 229.200,100.776 229.200 C 101.203 229.200,101.664 229.380,101.800 229.600 C 101.936 229.820,102.397 230.000,102.824 230.000 C 103.251 230.000,103.600 230.180,103.600 230.400 C 103.600 230.620,103.962 230.800,104.405 230.800 C 104.848 230.800,105.523 230.968,105.905 231.173 C 106.287 231.379,107.455 231.778,108.500 232.061 C 109.545 232.343,110.400 232.715,110.400 232.887 C 110.400 233.059,110.602 233.200,110.849 233.200 C 111.159 233.200,111.144 233.015,110.800 232.600 C 110.526 232.270,109.975 232.000,109.575 232.000 C 109.175 232.000,108.736 231.820,108.600 231.600 C 108.464 231.380,107.924 231.200,107.400 231.200 C 106.876 231.200,106.336 231.020,106.200 230.800 C 106.064 230.580,105.620 230.400,105.214 230.400 C 104.808 230.400,103.739 230.040,102.838 229.600 C 101.937 229.160,100.463 228.440,99.562 228.000 C 98.661 227.560,97.671 227.200,97.362 227.200 C 97.053 227.200,96.799 227.065,96.797 226.900 C 96.795 226.735,96.390 226.402,95.897 226.160 C 94.006 225.231,91.391 223.790,91.200 223.571 C 90.853 223.173,89.600 222.812,89.607 223.113 M112.746 233.416 C 113.486 233.737,114.521 234.000,115.046 234.000 C 115.571 234.000,116.000 234.180,116.000 234.400 C 116.000 234.620,116.709 234.800,117.576 234.800 C 118.443 234.800,119.264 234.980,119.400 235.200 C 119.536 235.420,120.042 235.599,120.524 235.598 C 121.306 235.595,121.277 235.531,120.254 234.998 C 119.624 234.669,118.600 234.400,117.978 234.400 C 117.356 234.400,116.736 234.220,116.600 234.000 C 116.464 233.780,115.744 233.600,115.000 233.600 C 114.256 233.600,113.536 233.420,113.400 233.200 C 113.264 232.980,112.758 232.807,112.276 232.816 C 111.577 232.828,111.671 232.949,112.746 233.416 M122.300 235.482 C 122.795 235.578,123.200 235.808,123.200 235.994 C 123.200 236.180,124.325 236.417,125.700 236.521 C 127.075 236.625,128.740 236.830,129.400 236.977 L 130.600 237.244 129.600 236.636 C 129.050 236.302,127.666 236.022,126.524 236.014 C 125.382 236.006,124.336 235.820,124.200 235.600 C 124.064 235.380,123.378 235.225,122.676 235.254 C 121.735 235.295,121.637 235.354,122.300 235.482 M133.100 237.093 C 134.035 237.177,134.800 237.416,134.800 237.623 C 134.800 237.830,135.250 238.000,135.800 238.000 C 136.350 238.000,136.800 237.841,136.800 237.647 C 136.800 237.131,135.261 236.802,133.200 236.875 L 131.400 236.940 133.100 237.093 " stroke="none" fill="#7c547c" fill-rule="evenodd"></path></g></svg>